%TF.GenerationSoftware,Altium Limited,Altium Designer,22.10.1 (41)*%
G04 Layer_Color=32896*
%FSLAX25Y25*%
%MOIN*%
%TF.SameCoordinates,08EBF004-22A4-4A0A-8F59-1DA9EC004EDC*%
%TF.FilePolarity,Positive*%
%TF.FileFunction,Other,Bottom_Component_Outline*%
%TF.Part,Single*%
G01*
G75*
%TA.AperFunction,NonConductor*%
%ADD94C,0.00394*%
D94*
X50467Y175810D02*
Y203369D01*
X21333Y175810D02*
Y203369D01*
X50467D01*
X23321Y174235D02*
X25880D01*
X23321D02*
X23617Y175810D01*
X25585D02*
X25880Y174235D01*
X21333Y175810D02*
X23617D01*
X45920Y174235D02*
X46215Y175810D01*
X48184D02*
X48479Y174235D01*
X45920D02*
X48479D01*
X48184Y175810D02*
X50467D01*
X25585D02*
X46215D01*
X50467Y105810D02*
Y133369D01*
X21333Y105810D02*
Y133369D01*
X50467D01*
X23321Y104235D02*
X25880D01*
X23321D02*
X23617Y105810D01*
X25585D02*
X25880Y104235D01*
X21333Y105810D02*
X23617D01*
X45920Y104235D02*
X46215Y105810D01*
X48184D02*
X48479Y104235D01*
X45920D02*
X48479D01*
X48184Y105810D02*
X50467D01*
X25585D02*
X46215D01*
X50467Y70578D02*
Y98137D01*
X21333Y70578D02*
Y98137D01*
X50467D01*
X23321Y69003D02*
X25880D01*
X23321D02*
X23617Y70578D01*
X25585D02*
X25880Y69003D01*
X21333Y70578D02*
X23617D01*
X45920Y69003D02*
X46215Y70578D01*
X48184D02*
X48479Y69003D01*
X45920D02*
X48479D01*
X48184Y70578D02*
X50467D01*
X25585D02*
X46215D01*
X50467Y210810D02*
Y238369D01*
X21333Y210810D02*
Y238369D01*
X50467D01*
X23321Y209235D02*
X25880D01*
X23321D02*
X23617Y210810D01*
X25585D02*
X25880Y209235D01*
X21333Y210810D02*
X23617D01*
X45920Y209235D02*
X46215Y210810D01*
X48184D02*
X48479Y209235D01*
X45920D02*
X48479D01*
X48184Y210810D02*
X50467D01*
X25585D02*
X46215D01*
X50467Y140920D02*
Y168480D01*
X21333Y140920D02*
Y168480D01*
X50467D01*
X23321Y139346D02*
X25880D01*
X23321D02*
X23617Y140920D01*
X25585D02*
X25880Y139346D01*
X21333Y140920D02*
X23617D01*
X45920Y139346D02*
X46215Y140920D01*
X48184D02*
X48479Y139346D01*
X45920D02*
X48479D01*
X48184Y140920D02*
X50467D01*
X25585D02*
X46215D01*
%TF.MD5,4b097dcd5bb8cf06534b667622d018cf*%
M02*
