%TF.GenerationSoftware,Altium Limited,Altium Designer,22.10.1 (41)*%
G04 Layer_Color=16711935*
%FSLAX25Y25*%
%MOIN*%
%TF.SameCoordinates,08EBF004-22A4-4A0A-8F59-1DA9EC004EDC*%
%TF.FilePolarity,Negative*%
%TF.FileFunction,Soldermask,Bot*%
%TF.Part,Single*%
G01*
G75*
%TA.AperFunction,ComponentPad*%
%ADD53C,0.14600*%
%ADD54O,0.06312X0.09068*%
%ADD55O,0.04934X0.05721*%
%ADD56C,0.08280*%
%ADD57C,0.08280*%
%ADD58R,0.08280X0.08280*%
%ADD59C,0.08674*%
%ADD60R,0.07300X0.08300*%
%ADD61O,0.07300X0.08300*%
%ADD62C,0.08800*%
%ADD63R,0.08800X0.08800*%
G04:AMPARAMS|DCode=64|XSize=84.77mil|YSize=84.77mil|CornerRadius=23.19mil|HoleSize=0mil|Usage=FLASHONLY|Rotation=90.000|XOffset=0mil|YOffset=0mil|HoleType=Round|Shape=RoundedRectangle|*
%AMROUNDEDRECTD64*
21,1,0.08477,0.03839,0,0,90.0*
21,1,0.03839,0.08477,0,0,90.0*
1,1,0.04639,0.01919,0.01919*
1,1,0.04639,0.01919,-0.01919*
1,1,0.04639,-0.01919,-0.01919*
1,1,0.04639,-0.01919,0.01919*
%
%ADD64ROUNDEDRECTD64*%
%ADD65C,0.08477*%
%TA.AperFunction,ViaPad*%
%ADD66C,0.05800*%
D53*
X-2000Y34000D02*
D03*
X282900Y443100D02*
D03*
X0D02*
D03*
X282900Y34000D02*
D03*
D54*
X234455Y29757D02*
D03*
X201581D02*
D03*
D55*
X209258Y41784D02*
D03*
X226778D02*
D03*
D56*
X252700Y359400D02*
D03*
Y369400D02*
D03*
Y379400D02*
D03*
X34200Y343300D02*
D03*
Y273300D02*
D03*
Y283300D02*
D03*
Y293300D02*
D03*
Y303300D02*
D03*
Y313300D02*
D03*
Y323300D02*
D03*
Y333300D02*
D03*
Y353300D02*
D03*
Y363300D02*
D03*
Y373300D02*
D03*
Y383300D02*
D03*
Y393300D02*
D03*
Y403300D02*
D03*
X70500Y431300D02*
D03*
X60500D02*
D03*
X50500D02*
D03*
X40500D02*
D03*
X30500D02*
D03*
X182900Y325800D02*
D03*
X192900D02*
D03*
X202900D02*
D03*
X212900D02*
D03*
X222900D02*
D03*
X232900D02*
D03*
X181800Y395800D02*
D03*
X191800D02*
D03*
X201800D02*
D03*
D57*
X59400Y147700D02*
D03*
X86959D02*
D03*
X132235Y165810D02*
D03*
X59400Y182700D02*
D03*
X86959D02*
D03*
X132235Y200810D02*
D03*
Y235810D02*
D03*
X86959Y217700D02*
D03*
X59400D02*
D03*
Y112700D02*
D03*
X86959D02*
D03*
X132235Y130810D02*
D03*
D58*
Y147700D02*
D03*
Y182700D02*
D03*
Y217700D02*
D03*
Y112700D02*
D03*
D59*
X60282Y96771D02*
D03*
X65006Y77086D02*
D03*
D60*
X124100Y269000D02*
D03*
D61*
X114000D02*
D03*
X173300Y268900D02*
D03*
X163200D02*
D03*
X153400D02*
D03*
X143300D02*
D03*
D62*
X265700Y285200D02*
D03*
D63*
X237827D02*
D03*
D64*
X34719Y182700D02*
D03*
Y112700D02*
D03*
Y77468D02*
D03*
Y217700D02*
D03*
Y147810D02*
D03*
D65*
Y196479D02*
D03*
Y126479D02*
D03*
Y91247D02*
D03*
Y231480D02*
D03*
Y161590D02*
D03*
D66*
X249300Y27100D02*
D03*
X241800Y37700D02*
D03*
X191216Y27300D02*
D03*
X191300Y37400D02*
D03*
X155700Y358300D02*
D03*
X162500Y341700D02*
D03*
X100600Y302600D02*
D03*
X146300Y309700D02*
D03*
X68000Y290000D02*
D03*
X138000Y284400D02*
D03*
X106100Y394800D02*
D03*
X116800Y380300D02*
D03*
X155800Y367300D02*
D03*
X185300Y378400D02*
D03*
X187500Y356200D02*
D03*
X201750Y428950D02*
D03*
X201800Y408100D02*
D03*
X141100Y419000D02*
D03*
X141000Y444200D02*
D03*
%TF.MD5,123cd2004017b5e96cf2895bb76295ad*%
M02*
