%TF.GenerationSoftware,Altium Limited,Altium Designer,22.10.1 (41)*%
G04 Layer_Color=16711935*
%FSLAX25Y25*%
%MOIN*%
%TF.SameCoordinates,08EBF004-22A4-4A0A-8F59-1DA9EC004EDC*%
%TF.FilePolarity,Positive*%
%TF.FileFunction,Other,Mechanical_13*%
%TF.Part,Single*%
G01*
G75*
%TA.AperFunction,NonConductor*%
%ADD69C,0.00500*%
%ADD94C,0.00394*%
%ADD97R,0.11496X0.02436*%
D69*
X187986Y49126D02*
Y67787D01*
X201450D01*
Y49126D02*
Y67787D01*
X187986Y49126D02*
X201450D01*
D94*
X132005Y338436D02*
G03*
X132005Y338436I-1969J0D01*
G01*
X162841Y386654D02*
Y405946D01*
X117959Y386654D02*
X162841D01*
X117959D02*
Y405946D01*
X162841D01*
X204435Y21725D02*
X205262D01*
Y19363D02*
Y21725D01*
X230774D02*
X231601D01*
X230774Y19363D02*
Y21725D01*
X205262Y19363D02*
X230774D01*
X202270Y19855D02*
X202959Y19363D01*
X204435Y21725D01*
X202270Y19855D02*
X203451Y21725D01*
X232585D02*
X233766Y19855D01*
X231601Y21725D02*
X233077Y19363D01*
X233766Y19855D01*
X232585Y21725D02*
Y41450D01*
X203451Y21725D02*
Y41450D01*
X232585D01*
X106020Y314421D02*
Y341980D01*
X133580Y314421D02*
Y341980D01*
X106020Y314421D02*
X133580D01*
X106020Y341980D02*
X133580D01*
X144152Y218645D02*
Y236755D01*
X155648Y218645D02*
Y236755D01*
X144152Y218645D02*
X155648D01*
X144152Y236755D02*
X155648D01*
X245466Y238243D02*
Y243558D01*
X253734Y238243D02*
Y243558D01*
X245466D02*
X253734D01*
X245466Y238243D02*
X253734D01*
X245466Y203443D02*
Y208757D01*
X253734Y203443D02*
Y208757D01*
X245466D02*
X253734D01*
X245466Y203443D02*
X253734D01*
X144152Y113645D02*
Y131755D01*
X155648Y113645D02*
Y131755D01*
X144152Y113645D02*
X155648D01*
X144152Y131755D02*
X155648D01*
X144152Y148645D02*
Y166755D01*
X155648Y148645D02*
Y166755D01*
X144152Y148645D02*
X155648D01*
X144152Y166755D02*
X155648D01*
X144152Y183645D02*
Y201755D01*
X155648Y183645D02*
Y201755D01*
X144152Y183645D02*
X155648D01*
X144152Y201755D02*
X155648D01*
X245466Y168342D02*
Y173658D01*
X253734Y168342D02*
Y173658D01*
X245466D02*
X253734D01*
X245466Y168342D02*
X253734D01*
X245366Y133543D02*
Y138857D01*
X253634Y133543D02*
Y138857D01*
X245366D02*
X253634D01*
X245366Y133543D02*
X253634D01*
X217828Y375247D02*
X221372D01*
X217828Y368553D02*
X221372D01*
Y375247D01*
X217828Y368553D02*
Y375247D01*
X132211Y55134D02*
X158589D01*
X132211Y69701D02*
X158589D01*
X132211Y55134D02*
Y69701D01*
X158589Y55134D02*
Y69701D01*
X255052Y346755D02*
X266548D01*
X255052Y328645D02*
X266548D01*
Y346755D01*
X255052Y328645D02*
Y346755D01*
D97*
X149900Y219863D02*
D03*
Y114863D02*
D03*
Y149863D02*
D03*
Y184863D02*
D03*
X260800Y329863D02*
D03*
%TF.MD5,bce9416bf361cc713bef53a33892eb93*%
M02*
