M48
;Layer_Color=9474304
;FILE_FORMAT=2:5
INCH,LZ
;TYPE=PLATED
T2F00S00C0.02800
T4F00S00C0.03600
T5F00S00C0.03937
T6F00S00C0.04331
T7F00S00C0.04724
T8F00S00C0.05118
T9F00S00C0.11810
%
T02
X0295816Y00817
X02959Y00918
X03464Y00921
X03539Y00815
X02426Y03388
X02509Y03641
X02671Y03961
X02603Y04127
X02604Y04217
X02899Y04328
X02921Y04106
X03064Y04625
X02107Y04492
X02214Y04347
X02052Y0357
X01726Y03444
X02457Y04734
X02456Y04986
X030635Y048335
T04
X02186Y03234
X02287
X02479Y03233
X0258
X02678
X02779
X0342427Y03396
X03703
T05
X0169606Y0131486
X0164882Y0151171
T06
X0164Y01671
X0191559
Y02021
X0164
Y02371
X0191559
Y02721
X0164
X0236835
Y025521
Y02371
Y022021
Y02021
Y018521
Y01671
Y029021
T07
X01388Y03277
Y03377
Y03477
Y03577
Y03677
Y03777
Y03877
Y03977
Y04077
Y04177
Y04277
Y04377
Y04477
Y04577
X02864Y04502
X02964
X03064
X03075Y03802
X02975
X02875
X03175
X03275
X03375
X03573Y04138
Y04238
Y04338
X01751Y04857
X01651
X01551
X01451
X01351
T08
X0139319Y0131868
Y0145647
Y01671
Y0180879
Y020221
Y021599
Y02371
Y025088
Y02721
Y0285879
T09
X01026Y00884
X03875
Y04975
X01046
M30
