%TF.GenerationSoftware,Altium Limited,Altium Designer,22.10.1 (41)*%
G04 Layer_Color=8421504*
%FSLAX25Y25*%
%MOIN*%
%TF.SameCoordinates,08EBF004-22A4-4A0A-8F59-1DA9EC004EDC*%
%TF.FilePolarity,Positive*%
%TF.FileFunction,Paste,Top*%
%TF.Part,Single*%
G01*
G75*
%TA.AperFunction,SMDPad,CuDef*%
%ADD10R,0.21654X0.07874*%
%ADD11R,0.01575X0.05315*%
%ADD12R,0.07087X0.07480*%
%ADD13O,0.08858X0.06299*%
%ADD14R,0.09055X0.06693*%
%ADD15R,0.05500X0.05000*%
%ADD16R,0.05000X0.05500*%
%ADD17O,0.05709X0.01181*%
%ADD18O,0.01181X0.05709*%
%ADD19R,0.15748X0.07874*%
%ADD20O,0.02000X0.04000*%
G04:AMPARAMS|DCode=21|XSize=20mil|YSize=40mil|CornerRadius=0mil|HoleSize=0mil|Usage=FLASHONLY|Rotation=0.000|XOffset=0mil|YOffset=0mil|HoleType=Round|Shape=Octagon|*
%AMOCTAGOND21*
4,1,8,-0.00500,0.02000,0.00500,0.02000,0.01000,0.01500,0.01000,-0.01500,0.00500,-0.02000,-0.00500,-0.02000,-0.01000,-0.01500,-0.01000,0.01500,-0.00500,0.02000,0.0*
%
%ADD21OCTAGOND21*%

G04:AMPARAMS|DCode=22|XSize=52.76mil|YSize=129.53mil|CornerRadius=6.59mil|HoleSize=0mil|Usage=FLASHONLY|Rotation=270.000|XOffset=0mil|YOffset=0mil|HoleType=Round|Shape=RoundedRectangle|*
%AMROUNDEDRECTD22*
21,1,0.05276,0.11634,0,0,270.0*
21,1,0.03957,0.12953,0,0,270.0*
1,1,0.01319,-0.05817,-0.01978*
1,1,0.01319,-0.05817,0.01978*
1,1,0.01319,0.05817,0.01978*
1,1,0.01319,0.05817,-0.01978*
%
%ADD22ROUNDEDRECTD22*%
%ADD23R,0.04724X0.03347*%
%ADD24R,0.06693X0.09843*%
%ADD25R,0.04331X0.04724*%
%ADD26R,0.03150X0.03150*%
%ADD27R,0.03937X0.09449*%
%ADD28R,0.12992X0.09449*%
%ADD29R,0.05315X0.07087*%
G36*
X207516Y26017D02*
X200491D01*
X199767Y26316D01*
X199214Y26870D01*
X198914Y27593D01*
Y27985D01*
Y32316D01*
Y32551D01*
X199094Y32985D01*
X199426Y33317D01*
X199860Y33497D01*
X207516D01*
Y26017D01*
D02*
G37*
G36*
X236610Y33317D02*
X236943Y32985D01*
X237122Y32551D01*
Y32316D01*
Y27985D01*
Y27593D01*
X236823Y26870D01*
X236269Y26316D01*
X235545Y26017D01*
X228520D01*
Y33497D01*
X236176D01*
X236610Y33317D01*
D02*
G37*
D10*
X121699Y396300D02*
D03*
X159101D02*
D03*
D11*
X220577Y40800D02*
D03*
X218018D02*
D03*
X215459D02*
D03*
X223136D02*
D03*
X212900D02*
D03*
D12*
X213491Y29757D02*
D03*
X222546D02*
D03*
D13*
X196668Y161000D02*
D03*
Y171000D02*
D03*
X230132D02*
D03*
Y161000D02*
D03*
X196668Y230900D02*
D03*
Y240900D02*
D03*
X230132D02*
D03*
Y230900D02*
D03*
X196668Y196100D02*
D03*
Y206100D02*
D03*
X230132D02*
D03*
Y196100D02*
D03*
X196668Y126100D02*
D03*
Y136100D02*
D03*
X230132D02*
D03*
Y126100D02*
D03*
D14*
X197800Y345600D02*
D03*
X176146D02*
D03*
X99753Y386600D02*
D03*
X78100D02*
D03*
D15*
X211900Y385000D02*
D03*
Y376000D02*
D03*
X137450Y302250D02*
D03*
Y293250D02*
D03*
X146050Y302350D02*
D03*
Y293350D02*
D03*
X173900Y59900D02*
D03*
Y50900D02*
D03*
X147200Y341700D02*
D03*
Y350700D02*
D03*
X183900Y232000D02*
D03*
Y241000D02*
D03*
Y197100D02*
D03*
Y206100D02*
D03*
Y136100D02*
D03*
Y127100D02*
D03*
Y171100D02*
D03*
Y162100D02*
D03*
X155700Y341700D02*
D03*
Y350700D02*
D03*
X116600Y50700D02*
D03*
Y59700D02*
D03*
X165000Y50900D02*
D03*
Y59900D02*
D03*
X126100Y59700D02*
D03*
Y50700D02*
D03*
D16*
X107800Y372200D02*
D03*
X116800D02*
D03*
Y363700D02*
D03*
X107800D02*
D03*
X245300Y230900D02*
D03*
X254300D02*
D03*
X245500Y161000D02*
D03*
X254500D02*
D03*
X245300Y196100D02*
D03*
X254300D02*
D03*
X245300Y126100D02*
D03*
X254300D02*
D03*
X176100Y372300D02*
D03*
X185100D02*
D03*
X147100Y367300D02*
D03*
X138100D02*
D03*
X147100Y358800D02*
D03*
X138100D02*
D03*
X90500Y412400D02*
D03*
X99500D02*
D03*
X185100Y363800D02*
D03*
X176100D02*
D03*
X149900Y412300D02*
D03*
X158900D02*
D03*
X99500Y404400D02*
D03*
X90500D02*
D03*
X130400Y412300D02*
D03*
X121400D02*
D03*
X83300Y311100D02*
D03*
X92300D02*
D03*
X83300Y302700D02*
D03*
X92300D02*
D03*
X235800Y369700D02*
D03*
X226800D02*
D03*
X219200Y349300D02*
D03*
X228200D02*
D03*
D17*
X136434Y339027D02*
D03*
Y337058D02*
D03*
Y335090D02*
D03*
Y333121D02*
D03*
Y331153D02*
D03*
Y329184D02*
D03*
Y327216D02*
D03*
Y325247D02*
D03*
Y323279D02*
D03*
Y321310D02*
D03*
Y319342D02*
D03*
Y317373D02*
D03*
X103166D02*
D03*
Y319342D02*
D03*
Y321310D02*
D03*
Y323279D02*
D03*
Y325247D02*
D03*
Y327216D02*
D03*
Y329184D02*
D03*
Y331153D02*
D03*
Y333121D02*
D03*
Y335090D02*
D03*
Y337058D02*
D03*
Y339027D02*
D03*
D18*
X130627Y311566D02*
D03*
X128658D02*
D03*
X126690D02*
D03*
X124721D02*
D03*
X122753D02*
D03*
X120784D02*
D03*
X118816D02*
D03*
X116847D02*
D03*
X114879D02*
D03*
X112910D02*
D03*
X110942D02*
D03*
X108973D02*
D03*
Y344834D02*
D03*
X110942D02*
D03*
X112910D02*
D03*
X114879D02*
D03*
X116847D02*
D03*
X118816D02*
D03*
X120784D02*
D03*
X122753D02*
D03*
X124721D02*
D03*
X126690D02*
D03*
X128658D02*
D03*
X130627D02*
D03*
D19*
X228435Y89657D02*
D03*
X205601D02*
D03*
D20*
X216818Y55557D02*
D03*
X213058Y55498D02*
D03*
Y66498D02*
D03*
X216858Y66498D02*
D03*
X220558Y55498D02*
D03*
D21*
Y66498D02*
D03*
D22*
X194718Y66921D02*
D03*
Y49992D02*
D03*
D23*
X173321Y239580D02*
D03*
X173300Y232000D02*
D03*
X163479Y235720D02*
D03*
Y200720D02*
D03*
X173300Y197000D02*
D03*
X173321Y204580D02*
D03*
X163479Y165720D02*
D03*
X173300Y162000D02*
D03*
X173321Y169580D02*
D03*
X163479Y130720D02*
D03*
X173300Y127000D02*
D03*
X173321Y134580D02*
D03*
X238079Y341720D02*
D03*
X238100Y349300D02*
D03*
X247921Y345580D02*
D03*
D24*
X149900Y219826D02*
D03*
Y235574D02*
D03*
Y114826D02*
D03*
Y130574D02*
D03*
Y149826D02*
D03*
Y165574D02*
D03*
Y184826D02*
D03*
Y200574D02*
D03*
X260800Y345574D02*
D03*
Y329826D02*
D03*
D25*
X245466Y240900D02*
D03*
X253734D02*
D03*
X245466Y206100D02*
D03*
X253734D02*
D03*
X245466Y171000D02*
D03*
X253734D02*
D03*
X245366Y136200D02*
D03*
X253634D02*
D03*
D26*
X219600Y375050D02*
D03*
Y368750D02*
D03*
D27*
X136345Y51000D02*
D03*
X145400D02*
D03*
X154455D02*
D03*
D28*
X145400Y73835D02*
D03*
D29*
X226706Y359400D02*
D03*
X239895D02*
D03*
%TF.MD5,b5d24c69ff1fc295d9ccbead415a35c5*%
M02*
