%TF.GenerationSoftware,Altium Limited,Altium Designer,22.10.1 (41)*%
G04 Layer_Color=8388736*
%FSLAX25Y25*%
%MOIN*%
%TF.SameCoordinates,08EBF004-22A4-4A0A-8F59-1DA9EC004EDC*%
%TF.FilePolarity,Positive*%
%TF.FileFunction,Other,Top_3D_Body*%
%TF.Part,Single*%
G01*
G75*
%TA.AperFunction,NonConductor*%
%ADD94C,0.00394*%
%ADD95C,0.00200*%
D94*
X203451Y24521D02*
X232585D01*
D95*
X213687Y22644D02*
X214373D01*
X214601Y22721D01*
X214678Y22797D01*
X214754Y22949D01*
Y23178D01*
X214678Y23330D01*
X214601Y23406D01*
X214373Y23482D01*
X213687D01*
Y21883D01*
X216254Y23101D02*
X216178Y23254D01*
X216026Y23406D01*
X215874Y23482D01*
X215569D01*
X215417Y23406D01*
X215264Y23254D01*
X215188Y23101D01*
X215112Y22873D01*
Y22492D01*
X215188Y22264D01*
X215264Y22111D01*
X215417Y21959D01*
X215569Y21883D01*
X215874D01*
X216026Y21959D01*
X216178Y22111D01*
X216254Y22264D01*
X216704Y23482D02*
Y21883D01*
Y23482D02*
X217389D01*
X217618Y23406D01*
X217694Y23330D01*
X217770Y23178D01*
Y23025D01*
X217694Y22873D01*
X217618Y22797D01*
X217389Y22721D01*
X216704D02*
X217389D01*
X217618Y22644D01*
X217694Y22568D01*
X217770Y22416D01*
Y22187D01*
X217694Y22035D01*
X217618Y21959D01*
X217389Y21883D01*
X216704D01*
X220375Y23482D02*
X219385D01*
Y21883D01*
X220375D01*
X219385Y22721D02*
X219995D01*
X221556Y23482D02*
Y21883D01*
Y22721D02*
X221404Y22873D01*
X221252Y22949D01*
X221023D01*
X220871Y22873D01*
X220718Y22721D01*
X220642Y22492D01*
Y22340D01*
X220718Y22111D01*
X220871Y21959D01*
X221023Y21883D01*
X221252D01*
X221404Y21959D01*
X221556Y22111D01*
X222897Y22949D02*
Y21730D01*
X222821Y21502D01*
X222744Y21426D01*
X222592Y21349D01*
X222364D01*
X222211Y21426D01*
X222897Y22721D02*
X222744Y22873D01*
X222592Y22949D01*
X222364D01*
X222211Y22873D01*
X222059Y22721D01*
X221983Y22492D01*
Y22340D01*
X222059Y22111D01*
X222211Y21959D01*
X222364Y21883D01*
X222592D01*
X222744Y21959D01*
X222897Y22111D01*
X223323Y22492D02*
X224237D01*
Y22644D01*
X224161Y22797D01*
X224085Y22873D01*
X223933Y22949D01*
X223704D01*
X223552Y22873D01*
X223400Y22721D01*
X223323Y22492D01*
Y22340D01*
X223400Y22111D01*
X223552Y21959D01*
X223704Y21883D01*
X223933D01*
X224085Y21959D01*
X224237Y22111D01*
%TF.MD5,0103503d4fd8e12955546e232f60c71c*%
M02*
