%TF.GenerationSoftware,Altium Limited,Altium Designer,22.10.1 (41)*%
G04 Layer_Physical_Order=2*
G04 Layer_Color=16711680*
%FSLAX25Y25*%
%MOIN*%
%TF.SameCoordinates,08EBF004-22A4-4A0A-8F59-1DA9EC004EDC*%
%TF.FilePolarity,Positive*%
%TF.FileFunction,Copper,L2,Bot,Signal*%
%TF.Part,Single*%
G01*
G75*
%TA.AperFunction,Conductor*%
%ADD30C,0.03500*%
%TA.AperFunction,ComponentPad*%
%ADD34C,0.13800*%
%ADD35O,0.04134X0.04921*%
%ADD36C,0.07480*%
%ADD37C,0.07480*%
%ADD38R,0.07480X0.07480*%
%ADD39C,0.07874*%
%ADD40R,0.06500X0.07500*%
%ADD41O,0.06500X0.07500*%
%ADD42C,0.08000*%
%ADD43R,0.08000X0.08000*%
G04:AMPARAMS|DCode=44|XSize=76.77mil|YSize=76.77mil|CornerRadius=19.19mil|HoleSize=0mil|Usage=FLASHONLY|Rotation=90.000|XOffset=0mil|YOffset=0mil|HoleType=Round|Shape=RoundedRectangle|*
%AMROUNDEDRECTD44*
21,1,0.07677,0.03839,0,0,90.0*
21,1,0.03839,0.07677,0,0,90.0*
1,1,0.03839,0.01919,0.01919*
1,1,0.03839,0.01919,-0.01919*
1,1,0.03839,-0.01919,-0.01919*
1,1,0.03839,-0.01919,0.01919*
%
%ADD44ROUNDEDRECTD44*%
%ADD45C,0.07677*%
%TA.AperFunction,ViaPad*%
%ADD46C,0.05000*%
%TA.AperFunction,ComponentPad*%
%ADD47O,0.05512X0.08268*%
D30*
X244800Y22600D02*
X249300Y27100D01*
X191216Y27300D02*
X195916Y22600D01*
X244800D01*
X229493Y37700D02*
X241800D01*
X228654Y36861D02*
X229493Y37700D01*
X200079Y36861D02*
X228654D01*
X199541Y37400D02*
X200079Y36861D01*
X191300Y37400D02*
X199541D01*
X148800Y365250D02*
X150850Y367300D01*
X148800Y355400D02*
X162500Y341700D01*
X150850Y367300D02*
X155800D01*
X148800Y355400D02*
Y365250D01*
X155800Y367300D02*
X166700Y378200D01*
X155700Y358300D02*
X167000D01*
X169100Y356200D01*
X187500D01*
X146200Y309800D02*
X146300Y309700D01*
X133200Y309800D02*
X146200D01*
X126000Y302600D02*
X133200Y309800D01*
X100600Y302600D02*
X126000D01*
X73600Y284400D02*
X138000D01*
X68000Y290000D02*
X73600Y284400D01*
X106100Y385300D02*
X111100Y380300D01*
X106100Y385300D02*
Y394800D01*
X111100Y380300D02*
X116800D01*
X185100Y378200D02*
X185300Y378400D01*
X166700Y378200D02*
X185100D01*
X181800Y395260D02*
X185300Y391760D01*
X181800Y395260D02*
Y395800D01*
X185300Y378400D02*
Y391760D01*
X201775Y408125D02*
X201800Y408100D01*
X201775Y408125D02*
Y428925D01*
X201750Y428950D02*
X201775Y428925D01*
X141000Y444200D02*
X141050Y444150D01*
Y419050D02*
X141100Y419000D01*
X141050Y419050D02*
Y444150D01*
D34*
X-2000Y34000D02*
D03*
X282900Y443100D02*
D03*
X0D02*
D03*
X282900Y34000D02*
D03*
D35*
X209258Y41784D02*
D03*
X226778D02*
D03*
D36*
X252700Y359400D02*
D03*
Y369400D02*
D03*
Y379400D02*
D03*
X34200Y343300D02*
D03*
Y273300D02*
D03*
Y283300D02*
D03*
Y293300D02*
D03*
Y303300D02*
D03*
Y313300D02*
D03*
Y323300D02*
D03*
Y333300D02*
D03*
Y353300D02*
D03*
Y363300D02*
D03*
Y373300D02*
D03*
Y383300D02*
D03*
Y393300D02*
D03*
Y403300D02*
D03*
X70500Y431300D02*
D03*
X60500D02*
D03*
X50500D02*
D03*
X40500D02*
D03*
X30500D02*
D03*
X182900Y325800D02*
D03*
X192900D02*
D03*
X202900D02*
D03*
X212900D02*
D03*
X222900D02*
D03*
X232900D02*
D03*
X181800Y395800D02*
D03*
X191800D02*
D03*
X201800D02*
D03*
D37*
X59400Y147700D02*
D03*
X86959D02*
D03*
X132235Y165810D02*
D03*
X59400Y182700D02*
D03*
X86959D02*
D03*
X132235Y200810D02*
D03*
Y235810D02*
D03*
X86959Y217700D02*
D03*
X59400D02*
D03*
Y112700D02*
D03*
X86959D02*
D03*
X132235Y130810D02*
D03*
D38*
Y147700D02*
D03*
Y182700D02*
D03*
Y217700D02*
D03*
Y112700D02*
D03*
D39*
X60282Y96771D02*
D03*
X65006Y77086D02*
D03*
D40*
X124100Y269000D02*
D03*
D41*
X114000D02*
D03*
X173300Y268900D02*
D03*
X163200D02*
D03*
X153400D02*
D03*
X143300D02*
D03*
D42*
X265700Y285200D02*
D03*
D43*
X237827D02*
D03*
D44*
X34719Y182700D02*
D03*
Y112700D02*
D03*
Y77468D02*
D03*
Y217700D02*
D03*
Y147810D02*
D03*
D45*
Y196479D02*
D03*
Y126479D02*
D03*
Y91247D02*
D03*
Y231480D02*
D03*
Y161590D02*
D03*
D46*
X249300Y27100D02*
D03*
X241800Y37700D02*
D03*
X191216Y27300D02*
D03*
X191300Y37400D02*
D03*
X155700Y358300D02*
D03*
X162500Y341700D02*
D03*
X100600Y302600D02*
D03*
X146300Y309700D02*
D03*
X68000Y290000D02*
D03*
X138000Y284400D02*
D03*
X106100Y394800D02*
D03*
X116800Y380300D02*
D03*
X155800Y367300D02*
D03*
X185300Y378400D02*
D03*
X187500Y356200D02*
D03*
X201750Y428950D02*
D03*
X201800Y408100D02*
D03*
X141100Y419000D02*
D03*
X141000Y444200D02*
D03*
D47*
X234455Y29757D02*
D03*
X201581D02*
D03*
%TF.MD5,60e0e1c5f8c1b7fdfed150dcccac2d86*%
M02*
