M48
;Layer_Color=9474304
;FILE_FORMAT=2:5
INCH,LZ
;TYPE=PLATED
T1F00S00C0.00787
T2F00S00C0.01181
T3F00S00C0.01575
T5F00S00C0.02362
T6F00S00C0.03150
T8F00S00C0.03600
T9F00S00C0.03937
T10F00S00C0.04331
T11F00S00C0.04724
T12F00S00C0.05118
T13F00S00C0.11810
;TYPE=NON_PLATED
T14F00S00C0.03150
%
T01
X0658348Y016936
X0665572
X066196Y0165748
X0669185
X0672797Y016936
Y0176585
X0669185Y0172972
Y0180197
X066196
X0665572Y0176585
X066196Y0172972
X0658348Y0176585
T02
X0330709Y0102362
X0338583
X0346457
X0354331
X0362205
X0370079
X0377953
X0385827
X0393701
X0401575
X0409449
X0417323
X0425197
X0433071
X0440945
X0448819
X0456693
X0464567
Y011811
X0456693Y0133858
X0448819
X0444882Y0141732
Y0125984
X04428Y0121
X0407
X04152Y01091
X03699Y01214
X0334Y01211
X0334646Y0110236
X0326772
X0472441Y0102362
X0480315
X0488189
X0496063
X0503937
X0511811
X0519685
X0527559
X0535433
X0543307
X0551181
X0559055
X0566929
X0574803
X0582678
X0590552
X0598425
X0606299
X0614174
X0622048
X0543307Y011811
X05689Y01493
X04967Y01416
X0482914Y0143375
X0480315Y0133858
X0633859Y0141732
X0641733
X0649607
X0657481
X0665355
X0673229
X0681103
X0688977
X068504Y0149606
X0677166
X0669292
X0661418
X0653544
X064567
X0637796
X06487Y01234
X06551Y01291
X0675Y01292
X06801Y0129254
X0679367Y0123833
X0677166Y011811
X0692914
X0677166Y0102362
X0669292
X0661418
X0653544
X064567
X0637796
X0629922
X0633859Y015748
X0641733
X0649607
X0657481
X0665355
X0673229
X0681103
X0688977
X068504Y0165354
X0688977Y0173228
X0681103
X068504Y0181103
X0688977Y0188977
X0681103
X0673229
X0665355
X0657481
X0649607
X0641733
X0633859
X0637796Y0181103
X064567
X0653544
X0649607Y0173228
X0641733
X0633859
X0637796Y0165354
X064567
X0653544
X0658279Y0212796
X06472Y02234
X06432Y02235
X06391Y02234
X06363Y02206
X0637796Y0228347
X064567
X0629922
X06351Y02097
X06829Y02099
X0669292Y0228347
X0665355Y0236221
X0669292Y0244095
X0661418
X0665355Y0251969
X06794Y02533
X0696851Y0267717
Y0283465
X0688977
X0692914Y0307087
X0629922
X0625985Y0299213
X0629922Y0291339
X0637796
X06373Y02754
X0633859Y0267717
X0641733Y0251969
X06451Y02528
X0622048Y0291339
Y0307087
X0606299Y0291339
X0598425
X0586615Y0299213
X05901Y03028
X0578741Y0299213
X0570866
X05762Y02887
X0586615Y0283465
X05873Y02756
Y02715
X05921Y02685
X0582678Y0275591
X0551181
X0543307
X0547244Y0283465
X053937
X0543307Y0291339
X0551181
X0547244Y0299213
X053937
X0543307Y0307087
X0535433
Y0291339
X053937Y0267717
X0547244
X0551181Y0244095
X0547244Y0236221
X0551181Y0228347
X0543307
X0547244Y0220473
X0562992
X0570866
X0578741
X0582678Y0212598
X0574803
X0566929Y0228347
X0531496Y0236221
X0507874Y0220473
X05041Y02087
X0502213Y0206019
X04954Y0203538
X0495271Y0200378
X04953Y01971
X04909Y01634
X0606296Y0164604
X06065Y01603
X06096Y01567
X0618111Y0173228
X0614174Y0196851
X0598425
X0594488Y0204725
X06177Y02125
Y02165
X0464567Y0212598
X0468504Y0204725
X0464567Y0196851
Y0181103
X0456693
X046063Y0173228
X0468504
X0452756
X0444882
Y015748
X0452756Y0188977
Y0204725
Y0220473
Y0236221
X0444882
X0468504
X0464567Y0228347
X0507874Y0330709
X0511811Y0338583
X0519685
X0523622Y0346457
X0531496
X053937
X0547244
X0555118
X0562992
X0570866
X0578741
X0586615
X0594488
X0602362
X0610237
X0618111
Y0330709
X0610237
X0614174Y0322835
X0622048
X0610237Y0314961
X0602362
X0594488Y0330709
X0586615
X0582678Y0322835
X0562992Y0314961
X0547244
X053937
X0543307Y0322835
X0551181
X0535433
X0515748Y0346457
X0507874
X0625985
X0633859
X0641733
X0649607
X0657481
X0665355
X0673229
X0681103
X0677166Y0338583
X0669292
X0661418
X0653544
X064567
Y0322835
X0661418
X0669292
X0665355Y0330709
X0657481
X0625985
X0629922Y0322835
X0625985Y0314961
X0688977
X0696851
X0692914Y0322835
X068504
T03
X05017Y01419
X05108Y01405
X06687Y01238
X0687Y01266
X06909Y02361
X06904Y02405
X06508Y02793
X06673Y03047
X05613Y02731
X05614Y02564
X05295Y02102
X05194Y0183342
X0471Y01892
X0583Y01924
X04569Y01755
X03191Y02289
T05
X04946Y01278
T06
X06353Y03007
Y03107
X06053
Y03007
Y03207
Y03307
X06353
Y03207
T08
X0557727Y02373
X05856
T09
X0463394Y0265786
X0468118Y0285471
T10
X0318945Y0219583
X0337055
X035489Y0219665
X0373
X039169Y0219965
X04098
X042769Y0220465
X04458
Y0265741
Y02933
X04098Y02928
Y0265241
X0373Y0264941
Y02925
X0337055Y0292417
Y0264858
T11
X0554Y01179
X0564
X0574
X0584
X0594
X06096
X06196
X06296
X06396
X0523Y02168
X0513
X0503
X0493
X0483
X0473
X04729Y02304
X04829
X04929
X05029
X05278Y02431
Y02531
Y02631
Y02731
Y02831
Y02931
Y03031
X05556Y03069
Y02969
Y02869
X05713Y03067
Y03167
Y03267
X05556Y03269
Y03169
X05278Y03131
Y03231
T12
X03232Y03165
X033698
X03592
X0372979
X0395721Y03163
X04095
X043161
X044539
X04678Y03162
X0481579
T13
X03155Y01048
X06916
X03155Y03426
X06916
T14
X0682117Y030686
Y0326545
M30
