%TF.GenerationSoftware,Altium Limited,Altium Designer,22.10.1 (41)*%
G04 Layer_Color=32896*
%FSLAX25Y25*%
%MOIN*%
%TF.SameCoordinates,4AA9267F-2698-4AE9-B1F6-D0915A06D3BE*%
%TF.FilePolarity,Positive*%
%TF.FileFunction,Other,Top_Courtyard*%
%TF.Part,Single*%
G01*
G75*
%TA.AperFunction,NonConductor*%
%ADD109C,0.00197*%
%ADD110C,0.00394*%
D109*
X311332Y219500D02*
X315268D01*
X313300Y217531D02*
Y221468D01*
X292828Y196350D02*
X333772D01*
Y242650D01*
X292828D02*
X333772D01*
X292828Y196350D02*
Y242650D01*
X332000Y206800D02*
X360500D01*
X332000Y187000D02*
X360500D01*
X332000D02*
Y206800D01*
X360500Y187000D02*
Y206800D01*
X39232Y203765D02*
Y234473D01*
X8523D02*
X39232D01*
X8523Y203765D02*
Y234473D01*
Y203765D02*
X39232D01*
X153123Y203465D02*
X183832D01*
X153123D02*
Y234173D01*
X183832D01*
Y203465D02*
Y234173D01*
X44523Y203765D02*
X75231D01*
X44523D02*
Y234473D01*
X75231D01*
Y203765D02*
Y234473D01*
X81043Y203565D02*
X111752D01*
X81043D02*
Y234273D01*
X111752D01*
Y203565D02*
Y234273D01*
X116933Y203565D02*
X147642D01*
X116933D02*
Y234273D01*
X147642D01*
Y203565D02*
Y234273D01*
D110*
X344332Y196900D02*
X348269D01*
X346300Y194931D02*
Y198869D01*
%TF.MD5,3d67834e0dac29ffccc9445fab6732ae*%
M02*
