%TF.GenerationSoftware,Altium Limited,Altium Designer,22.10.1 (41)*%
G04 Layer_Color=255*
%FSLAX25Y25*%
%MOIN*%
%TF.SameCoordinates,4AA9267F-2698-4AE9-B1F6-D0915A06D3BE*%
%TF.FilePolarity,Positive*%
%TF.FileFunction,Pads,Bot*%
%TF.Part,Single*%
G01*
G75*
%TA.AperFunction,ComponentPad*%
%ADD40C,0.01181*%
%ADD41C,0.13800*%
%ADD42C,0.08000*%
%ADD43R,0.08000X0.08000*%
%ADD44C,0.07480*%
%ADD45C,0.05118*%
%ADD46C,0.03150*%
%ADD47O,0.07087X0.04528*%
%ADD48O,0.07874X0.05709*%
%ADD49C,0.07677*%
G04:AMPARAMS|DCode=50|XSize=76.77mil|YSize=76.77mil|CornerRadius=19.19mil|HoleSize=0mil|Usage=FLASHONLY|Rotation=180.000|XOffset=0mil|YOffset=0mil|HoleType=Round|Shape=RoundedRectangle|*
%AMROUNDEDRECTD50*
21,1,0.07677,0.03839,0,0,180.0*
21,1,0.03839,0.07677,0,0,180.0*
1,1,0.03839,-0.01919,0.01919*
1,1,0.03839,0.01919,0.01919*
1,1,0.03839,0.01919,-0.01919*
1,1,0.03839,-0.01919,-0.01919*
%
%ADD50ROUNDEDRECTD50*%
%ADD51C,0.07480*%
%ADD52R,0.07480X0.07480*%
%ADD53C,0.07874*%
D40*
X365797Y80385D02*
D03*
Y73160D02*
D03*
X362185Y83997D02*
D03*
Y76772D02*
D03*
Y69548D02*
D03*
X358572Y80385D02*
D03*
Y73160D02*
D03*
X354960Y83997D02*
D03*
Y76772D02*
D03*
Y69548D02*
D03*
X351348Y80385D02*
D03*
Y73160D02*
D03*
D41*
X8500Y8600D02*
D03*
Y246400D02*
D03*
X384600D02*
D03*
Y8600D02*
D03*
D42*
X278600Y141100D02*
D03*
D43*
X250727D02*
D03*
D44*
X247000Y21700D02*
D03*
X257000D02*
D03*
X267000D02*
D03*
X277000D02*
D03*
X287000D02*
D03*
X165900Y134200D02*
D03*
X175900D02*
D03*
X185900D02*
D03*
X195900D02*
D03*
X302600Y21700D02*
D03*
X312600D02*
D03*
X322600D02*
D03*
X332600D02*
D03*
X264300Y230500D02*
D03*
Y220500D02*
D03*
Y210500D02*
D03*
X248600Y230700D02*
D03*
Y220700D02*
D03*
Y210700D02*
D03*
Y200700D02*
D03*
Y190700D02*
D03*
X166000Y120600D02*
D03*
X176000D02*
D03*
X186000D02*
D03*
X196000D02*
D03*
X206000D02*
D03*
X216000D02*
D03*
X220800Y196900D02*
D03*
Y186900D02*
D03*
Y176900D02*
D03*
Y166900D02*
D03*
Y156900D02*
D03*
Y146900D02*
D03*
Y206900D02*
D03*
Y216900D02*
D03*
Y226900D02*
D03*
D45*
X328300Y214500D02*
D03*
Y224500D02*
D03*
X298300Y204500D02*
D03*
Y214500D02*
D03*
Y224500D02*
D03*
Y234500D02*
D03*
X328300D02*
D03*
Y204500D02*
D03*
D46*
X375117Y230345D02*
D03*
Y210660D02*
D03*
D47*
X385943Y235758D02*
D03*
Y205247D02*
D03*
D48*
X370983Y235168D02*
D03*
Y205837D02*
D03*
D49*
X16200Y220300D02*
D03*
X160800Y220000D02*
D03*
X52200Y220300D02*
D03*
X88721Y220100D02*
D03*
X124610D02*
D03*
D50*
X29980Y220300D02*
D03*
X174580Y220000D02*
D03*
X65979Y220300D02*
D03*
X102500Y220100D02*
D03*
X138390D02*
D03*
D51*
X30055Y196217D02*
D03*
Y168658D02*
D03*
X11945Y123383D02*
D03*
X102800Y196600D02*
D03*
Y169041D02*
D03*
X84690Y123765D02*
D03*
X47890Y123465D02*
D03*
X66000Y168741D02*
D03*
Y196300D02*
D03*
X120690Y124265D02*
D03*
X138800Y169541D02*
D03*
Y197100D02*
D03*
D52*
X30055Y123383D02*
D03*
X102800Y123765D02*
D03*
X66000Y123465D02*
D03*
X138800Y124265D02*
D03*
D53*
X161118Y189271D02*
D03*
X156394Y169586D02*
D03*
%TF.MD5,d9dda4747034685800bae2609bcb29a6*%
M02*
