%TF.GenerationSoftware,Altium Limited,Altium Designer,22.10.1 (41)*%
G04 Layer_Color=16711935*
%FSLAX25Y25*%
%MOIN*%
%TF.SameCoordinates,4AA9267F-2698-4AE9-B1F6-D0915A06D3BE*%
%TF.FilePolarity,Positive*%
%TF.FileFunction,Other,Top_Designator*%
%TF.Part,Single*%
G01*
G75*
%TA.AperFunction,NonConductor*%
%ADD114C,0.00591*%
%ADD115C,0.00472*%
D114*
X311332Y216548D02*
X310348Y215564D01*
Y213596D01*
X311332Y212613D01*
X312316D01*
X313300Y213596D01*
Y215564D01*
X314284Y216548D01*
X315268D01*
X316252Y215564D01*
Y213596D01*
X315268Y212613D01*
X310348Y218516D02*
X316252D01*
X314284Y220484D01*
X316252Y222452D01*
X310348D01*
X316252Y224420D02*
Y226388D01*
Y225404D01*
X310348D01*
X311332Y224420D01*
X168674Y215867D02*
X170642D01*
X169658D01*
Y220787D01*
X170642Y221771D01*
X171625D01*
X172609Y220787D01*
X162770Y215867D02*
X164738Y216851D01*
X166706Y218819D01*
Y220787D01*
X165722Y221771D01*
X163754D01*
X162770Y220787D01*
Y219803D01*
X163754Y218819D01*
X166706D01*
D115*
X196549Y20639D02*
Y21426D01*
X194974Y23000D01*
X193400Y21426D01*
Y20639D01*
X194974Y23000D02*
Y25361D01*
X191826D02*
X190251D01*
X191039D01*
Y20639D01*
X191826Y21426D01*
X346300Y194539D02*
X349449D01*
Y196900D01*
X347874D01*
X349449D01*
Y199261D01*
X344726D02*
X343151D01*
X343938D01*
Y194539D01*
X344726Y195326D01*
%TF.MD5,2925b809449a1e7c60b352931f337a50*%
M02*
