%TF.GenerationSoftware,Altium Limited,Altium Designer,22.10.1 (41)*%
G04 Layer_Color=8388736*
%FSLAX25Y25*%
%MOIN*%
%TF.SameCoordinates,4AA9267F-2698-4AE9-B1F6-D0915A06D3BE*%
%TF.FilePolarity,Positive*%
%TF.FileFunction,Other,Mechanical_2*%
%TF.Part,Single*%
G01*
G75*
%TA.AperFunction,NonConductor*%
%ADD110C,0.00394*%
%ADD111C,0.00200*%
D110*
X393030Y205936D02*
Y235069D01*
D111*
X394630Y215385D02*
Y216070D01*
X394554Y216299D01*
X394478Y216375D01*
X394326Y216451D01*
X394097D01*
X393945Y216375D01*
X393869Y216299D01*
X393793Y216070D01*
Y215385D01*
X395392D01*
X394173Y217952D02*
X394021Y217875D01*
X393869Y217723D01*
X393793Y217571D01*
Y217266D01*
X393869Y217114D01*
X394021Y216961D01*
X394173Y216885D01*
X394402Y216809D01*
X394783D01*
X395011Y216885D01*
X395164Y216961D01*
X395316Y217114D01*
X395392Y217266D01*
Y217571D01*
X395316Y217723D01*
X395164Y217875D01*
X395011Y217952D01*
X393793Y218401D02*
X395392D01*
X393793D02*
Y219087D01*
X393869Y219315D01*
X393945Y219391D01*
X394097Y219467D01*
X394250D01*
X394402Y219391D01*
X394478Y219315D01*
X394554Y219087D01*
Y218401D02*
Y219087D01*
X394630Y219315D01*
X394707Y219391D01*
X394859Y219467D01*
X395088D01*
X395240Y219391D01*
X395316Y219315D01*
X395392Y219087D01*
Y218401D01*
X393793Y222073D02*
Y221082D01*
X395392D01*
Y222073D01*
X394554Y221082D02*
Y221692D01*
X393793Y223253D02*
X395392D01*
X394554D02*
X394402Y223101D01*
X394326Y222949D01*
Y222720D01*
X394402Y222568D01*
X394554Y222415D01*
X394783Y222339D01*
X394935D01*
X395164Y222415D01*
X395316Y222568D01*
X395392Y222720D01*
Y222949D01*
X395316Y223101D01*
X395164Y223253D01*
X394326Y224594D02*
X395545D01*
X395773Y224518D01*
X395849Y224442D01*
X395925Y224289D01*
Y224061D01*
X395849Y223908D01*
X394554Y224594D02*
X394402Y224442D01*
X394326Y224289D01*
Y224061D01*
X394402Y223908D01*
X394554Y223756D01*
X394783Y223680D01*
X394935D01*
X395164Y223756D01*
X395316Y223908D01*
X395392Y224061D01*
Y224289D01*
X395316Y224442D01*
X395164Y224594D01*
X394783Y225021D02*
Y225935D01*
X394630D01*
X394478Y225858D01*
X394402Y225782D01*
X394326Y225630D01*
Y225401D01*
X394402Y225249D01*
X394554Y225097D01*
X394783Y225021D01*
X394935D01*
X395164Y225097D01*
X395316Y225249D01*
X395392Y225401D01*
Y225630D01*
X395316Y225782D01*
X395164Y225935D01*
%TF.MD5,331134cd12da387b2d4b0918cdcf1173*%
M02*
