%TF.GenerationSoftware,Altium Limited,Altium Designer,22.10.1 (41)*%
G04 Layer_Color=8421504*
%FSLAX25Y25*%
%MOIN*%
%TF.SameCoordinates,4AA9267F-2698-4AE9-B1F6-D0915A06D3BE*%
%TF.FilePolarity,Positive*%
%TF.FileFunction,Paste,Top*%
%TF.Part,Single*%
G01*
G75*
%TA.AperFunction,SMDPad,CuDef*%
%ADD10O,0.06299X0.08858*%
%TA.AperFunction,ConnectorPad*%
%ADD11R,0.03543X0.07874*%
%ADD12R,0.07874X0.03543*%
%TA.AperFunction,BGAPad,CuDef*%
%ADD13R,0.05236X0.05236*%
%TA.AperFunction,SMDPad,CuDef*%
%ADD14R,0.09843X0.06693*%
%ADD15R,0.09055X0.06693*%
%ADD16O,0.04000X0.02000*%
G04:AMPARAMS|DCode=17|XSize=20mil|YSize=40mil|CornerRadius=0mil|HoleSize=0mil|Usage=FLASHONLY|Rotation=90.000|XOffset=0mil|YOffset=0mil|HoleType=Round|Shape=Octagon|*
%AMOCTAGOND17*
4,1,8,-0.02000,-0.00500,-0.02000,0.00500,-0.01500,0.01000,0.01500,0.01000,0.02000,0.00500,0.02000,-0.00500,0.01500,-0.01000,-0.01500,-0.01000,-0.02000,-0.00500,0.0*
%
%ADD17OCTAGOND17*%

%TA.AperFunction,TestPad*%
G04:AMPARAMS|DCode=18|XSize=39.37mil|YSize=39.37mil|CornerRadius=9.84mil|HoleSize=0mil|Usage=FLASHONLY|Rotation=90.000|XOffset=0mil|YOffset=0mil|HoleType=Round|Shape=RoundedRectangle|*
%AMROUNDEDRECTD18*
21,1,0.03937,0.01968,0,0,90.0*
21,1,0.01968,0.03937,0,0,90.0*
1,1,0.01968,0.00984,0.00984*
1,1,0.01968,0.00984,-0.00984*
1,1,0.01968,-0.00984,-0.00984*
1,1,0.01968,-0.00984,0.00984*
%
%ADD18ROUNDEDRECTD18*%
%TA.AperFunction,SMDPad,CuDef*%
%ADD19R,0.05000X0.05500*%
%ADD20R,0.02500X0.09843*%
%ADD21O,0.02500X0.09843*%
%ADD22O,0.05709X0.01181*%
%ADD23O,0.01181X0.05709*%
%ADD24R,0.05512X0.04528*%
%ADD25R,0.03937X0.09449*%
%ADD26R,0.12992X0.09449*%
%ADD27R,0.06000X0.14000*%
%ADD28R,0.05118X0.01772*%
%ADD29R,0.04331X0.04724*%
%ADD30R,0.04724X0.04331*%
%ADD31R,0.05500X0.05000*%
%ADD32R,0.07087X0.05315*%
%ADD33R,0.04724X0.03347*%
%ADD34R,0.03347X0.04724*%
%ADD35R,0.06693X0.09843*%
D10*
X81900Y42768D02*
D03*
X91900D02*
D03*
Y76232D02*
D03*
X81900D02*
D03*
X44800Y76500D02*
D03*
X54800D02*
D03*
Y43035D02*
D03*
X44800D02*
D03*
X118000Y76132D02*
D03*
X128000D02*
D03*
Y42668D02*
D03*
X118000D02*
D03*
X8600Y76432D02*
D03*
X18600D02*
D03*
Y42968D02*
D03*
X8600D02*
D03*
D11*
X388100Y106300D02*
D03*
X383100D02*
D03*
X378100D02*
D03*
X373100D02*
D03*
X368100D02*
D03*
X363100D02*
D03*
X358100D02*
D03*
X353100D02*
D03*
X348100D02*
D03*
X343100D02*
D03*
X338100D02*
D03*
X333100D02*
D03*
X328100D02*
D03*
X323100D02*
D03*
Y39371D02*
D03*
X328100D02*
D03*
X333100D02*
D03*
X338100D02*
D03*
X343100D02*
D03*
X348100D02*
D03*
X353100D02*
D03*
X358100D02*
D03*
X363100D02*
D03*
X368100D02*
D03*
X373100D02*
D03*
X378100D02*
D03*
X383100D02*
D03*
X388100D02*
D03*
D12*
X319163Y95335D02*
D03*
Y90335D02*
D03*
Y85335D02*
D03*
Y80335D02*
D03*
Y75335D02*
D03*
Y70335D02*
D03*
Y65335D02*
D03*
Y60335D02*
D03*
Y55335D02*
D03*
Y50335D02*
D03*
D13*
X365797Y83997D02*
D03*
Y76772D02*
D03*
Y69548D02*
D03*
X358572Y83997D02*
D03*
Y76772D02*
D03*
Y69548D02*
D03*
X351348Y83997D02*
D03*
Y76772D02*
D03*
Y69548D02*
D03*
D14*
X66000Y108800D02*
D03*
X50252D02*
D03*
X14252D02*
D03*
X30000D02*
D03*
X122926Y108600D02*
D03*
X138674D02*
D03*
X87052D02*
D03*
X102800D02*
D03*
D15*
X144947Y18300D02*
D03*
X166600D02*
D03*
X147146Y57700D02*
D03*
X168800D02*
D03*
X369253Y151300D02*
D03*
X347600D02*
D03*
X347547Y136000D02*
D03*
X369200D02*
D03*
D16*
X355000Y219300D02*
D03*
X355059Y215540D02*
D03*
X344059D02*
D03*
X344059Y219340D02*
D03*
X355059Y223040D02*
D03*
D17*
X344059D02*
D03*
D18*
X284900Y69600D02*
D03*
X281100Y40500D02*
D03*
X277300Y48000D02*
D03*
X273400Y40600D02*
D03*
X265900D02*
D03*
X269500Y48000D02*
D03*
X253300Y99600D02*
D03*
X288600Y63600D02*
D03*
X281100Y75600D02*
D03*
X277400Y81600D02*
D03*
X285000Y48000D02*
D03*
X288900Y40600D02*
D03*
X292800Y48100D02*
D03*
X221500Y29000D02*
D03*
X215000Y29100D02*
D03*
X185500Y56800D02*
D03*
D19*
X266900Y32100D02*
D03*
X275900D02*
D03*
X345750Y208450D02*
D03*
X354750D02*
D03*
X269200Y198000D02*
D03*
X260200D02*
D03*
X168500Y42300D02*
D03*
X159500D02*
D03*
X388000Y155000D02*
D03*
X379000D02*
D03*
X354300Y162900D02*
D03*
X345300D02*
D03*
X371400D02*
D03*
X362400D02*
D03*
X168600Y29800D02*
D03*
X159600D02*
D03*
X152300Y29900D02*
D03*
X143300D02*
D03*
X166800Y144800D02*
D03*
X175800D02*
D03*
X151300Y70400D02*
D03*
X160300D02*
D03*
X186250Y75350D02*
D03*
X195250D02*
D03*
X345400Y124400D02*
D03*
X354400D02*
D03*
X362379Y124396D02*
D03*
X371378D02*
D03*
X312921Y141380D02*
D03*
X321921D02*
D03*
X322021Y149180D02*
D03*
X313021D02*
D03*
X222500Y100900D02*
D03*
X213500D02*
D03*
X222500Y108900D02*
D03*
X213500D02*
D03*
X194700Y51400D02*
D03*
X203700D02*
D03*
X194700Y59500D02*
D03*
X203700D02*
D03*
X119000Y87200D02*
D03*
X128000D02*
D03*
X9600Y87300D02*
D03*
X18600D02*
D03*
X45700D02*
D03*
X54700D02*
D03*
X82800Y87000D02*
D03*
X91800D02*
D03*
X379000Y128800D02*
D03*
X388000D02*
D03*
X344100Y21700D02*
D03*
X353100D02*
D03*
X379000Y162700D02*
D03*
X388000D02*
D03*
X379000Y120400D02*
D03*
X388000D02*
D03*
D20*
X330302Y161605D02*
D03*
X325302D02*
D03*
X320302D02*
D03*
X315302D02*
D03*
X310302D02*
D03*
X305302D02*
D03*
X300302D02*
D03*
X295302D02*
D03*
X295302Y187195D02*
D03*
X300302D02*
D03*
X305302D02*
D03*
X310302D02*
D03*
X315302D02*
D03*
X320302D02*
D03*
X325302D02*
D03*
D21*
X330302D02*
D03*
D22*
X217566Y62573D02*
D03*
Y64542D02*
D03*
Y66510D02*
D03*
Y68479D02*
D03*
Y70447D02*
D03*
Y72416D02*
D03*
Y74384D02*
D03*
Y76353D02*
D03*
Y78321D02*
D03*
Y80290D02*
D03*
Y82258D02*
D03*
Y84227D02*
D03*
X250834D02*
D03*
Y82258D02*
D03*
Y80290D02*
D03*
Y78321D02*
D03*
Y76353D02*
D03*
Y74384D02*
D03*
Y72416D02*
D03*
Y70447D02*
D03*
Y68479D02*
D03*
Y66510D02*
D03*
Y64542D02*
D03*
Y62573D02*
D03*
D23*
X223373Y90034D02*
D03*
X225342D02*
D03*
X227310D02*
D03*
X229279D02*
D03*
X231247D02*
D03*
X233216D02*
D03*
X235184D02*
D03*
X237153D02*
D03*
X239121D02*
D03*
X241090D02*
D03*
X243058D02*
D03*
X245027D02*
D03*
Y56766D02*
D03*
X243058D02*
D03*
X241090D02*
D03*
X239121D02*
D03*
X237153D02*
D03*
X235184D02*
D03*
X233216D02*
D03*
X231247D02*
D03*
X229279D02*
D03*
X227310D02*
D03*
X225342D02*
D03*
X223373D02*
D03*
D24*
X197731Y26150D02*
D03*
X189069D02*
D03*
Y19850D02*
D03*
X197731D02*
D03*
D25*
X387055Y195817D02*
D03*
X378000D02*
D03*
X368945D02*
D03*
D26*
X378000Y172983D02*
D03*
D27*
X354641Y196900D02*
D03*
X338100D02*
D03*
D28*
X370983Y223062D02*
D03*
Y220503D02*
D03*
Y217944D02*
D03*
Y225621D02*
D03*
Y215385D02*
D03*
D29*
X151634Y42400D02*
D03*
X143366D02*
D03*
D30*
X309100Y64034D02*
D03*
Y55766D02*
D03*
X127900Y33034D02*
D03*
Y24766D02*
D03*
X18500Y33300D02*
D03*
Y25032D02*
D03*
X54700Y33534D02*
D03*
Y25266D02*
D03*
X91900Y33300D02*
D03*
Y25032D02*
D03*
D31*
X359300Y183100D02*
D03*
Y174100D02*
D03*
X351600Y183100D02*
D03*
Y174100D02*
D03*
X275000Y211700D02*
D03*
Y220700D02*
D03*
X180900Y17100D02*
D03*
Y26100D02*
D03*
X170800Y78500D02*
D03*
Y69500D02*
D03*
X193900Y94000D02*
D03*
Y85000D02*
D03*
X287200Y180200D02*
D03*
Y189200D02*
D03*
X337900Y163000D02*
D03*
Y172000D02*
D03*
X242200Y34100D02*
D03*
Y43100D02*
D03*
X250000Y34100D02*
D03*
Y43100D02*
D03*
X261600Y87200D02*
D03*
Y96200D02*
D03*
X269600Y87200D02*
D03*
Y96200D02*
D03*
X206050Y17150D02*
D03*
Y26150D02*
D03*
X211900Y37800D02*
D03*
Y46800D02*
D03*
X219800Y37800D02*
D03*
Y46800D02*
D03*
X118000Y33200D02*
D03*
Y24200D02*
D03*
X8500Y33500D02*
D03*
Y24500D02*
D03*
X44800Y33600D02*
D03*
Y24600D02*
D03*
X81900Y33300D02*
D03*
Y24300D02*
D03*
X309000Y47400D02*
D03*
Y38400D02*
D03*
X299500Y84800D02*
D03*
Y75800D02*
D03*
D32*
X283000Y224789D02*
D03*
Y211600D02*
D03*
D33*
X306043Y149060D02*
D03*
X306021Y141480D02*
D03*
X296200Y145200D02*
D03*
X338843Y145460D02*
D03*
X329021Y149180D02*
D03*
X329000Y141600D02*
D03*
D34*
X70380Y87279D02*
D03*
X62800Y87300D02*
D03*
X66520Y97121D02*
D03*
X143080Y87079D02*
D03*
X135500Y87100D02*
D03*
X139220Y96921D02*
D03*
X34180Y87279D02*
D03*
X26600Y87300D02*
D03*
X30320Y97121D02*
D03*
X107080Y87079D02*
D03*
X99500Y87100D02*
D03*
X103220Y96921D02*
D03*
X299420Y102121D02*
D03*
X295700Y92300D02*
D03*
X303280Y92279D02*
D03*
D35*
X299300Y126848D02*
D03*
Y111100D02*
D03*
%TF.MD5,5b59014e81353fa4ef8432d7fba1ea68*%
M02*
