%TF.GenerationSoftware,Altium Limited,Altium Designer,22.10.1 (41)*%
G04 Layer_Color=32768*
%FSLAX25Y25*%
%MOIN*%
%TF.SameCoordinates,4AA9267F-2698-4AE9-B1F6-D0915A06D3BE*%
%TF.FilePolarity,Positive*%
%TF.FileFunction,Other,Mechanical_15*%
%TF.Part,Single*%
G01*
G75*
%TA.AperFunction,NonConductor*%
%ADD109C,0.00197*%
%ADD110C,0.00394*%
D109*
X418572Y36418D02*
Y109253D01*
X391013Y36418D02*
X418572D01*
X391013Y34450D02*
Y36418D01*
X314242Y34450D02*
X391013D01*
X314242D02*
Y111221D01*
X391013D01*
Y109253D02*
Y111221D01*
Y109253D02*
X418572D01*
X44126Y101910D02*
X72126D01*
X44126Y115690D02*
X72126D01*
Y101910D02*
Y115690D01*
X44126Y101910D02*
Y115690D01*
X254672Y52928D02*
Y93872D01*
X213728Y52928D02*
Y93872D01*
X254672D01*
X213728Y52928D02*
X254672D01*
X193400Y21032D02*
Y24969D01*
X191431Y23000D02*
X195369D01*
X185526Y16799D02*
X201274D01*
X185526D02*
Y29201D01*
X201274D01*
Y16799D02*
Y29201D01*
X382400Y218534D02*
Y222471D01*
X380432Y220503D02*
X384368D01*
X8126Y101910D02*
Y115690D01*
X36126Y101910D02*
Y115690D01*
X8126D02*
X36126D01*
X8126Y101910D02*
X36126D01*
X116800Y101710D02*
Y115490D01*
X144800Y101710D02*
Y115490D01*
X116800D02*
X144800D01*
X116800Y101710D02*
X144800D01*
X80926D02*
Y115490D01*
X108926Y101710D02*
Y115490D01*
X80926D02*
X108926D01*
X80926Y101710D02*
X108926D01*
X306190Y104974D02*
Y132974D01*
X292410Y104974D02*
Y132974D01*
X306190D01*
X292410Y104974D02*
X306190D01*
D110*
X58126Y106832D02*
Y110768D01*
X56157Y108800D02*
X60094D01*
X232231Y73400D02*
X236169D01*
X234200Y71431D02*
Y75368D01*
X363827Y201526D02*
X392173D01*
X363827Y167274D02*
X392173D01*
Y201526D01*
X363827Y167274D02*
Y201526D01*
X378000Y182431D02*
Y186369D01*
X376031Y184400D02*
X379969D01*
X155000Y38900D02*
Y45900D01*
X139500Y38900D02*
Y45900D01*
Y38900D02*
X155000D01*
X139500Y45900D02*
X155000D01*
X145531Y42400D02*
X149469D01*
X147500Y40431D02*
Y44368D01*
X305600Y67400D02*
X312600D01*
X305600Y51900D02*
X312600D01*
Y67400D01*
X305600Y51900D02*
Y67400D01*
X309100Y57932D02*
Y61869D01*
X307132Y59900D02*
X311069D01*
X20157Y108800D02*
X24094D01*
X22126Y106832D02*
Y110768D01*
X128832Y108600D02*
X132768D01*
X130800Y106632D02*
Y110568D01*
X92958Y108600D02*
X96895D01*
X94926Y106632D02*
Y110568D01*
X124400Y36400D02*
X131400D01*
X124400Y20900D02*
X131400D01*
Y36400D01*
X124400Y20900D02*
Y36400D01*
X127900Y26932D02*
Y30869D01*
X125932Y28900D02*
X129868D01*
X15000Y36666D02*
X22000D01*
X15000Y21166D02*
X22000D01*
Y36666D01*
X15000Y21166D02*
Y36666D01*
X18500Y27198D02*
Y31135D01*
X16532Y29166D02*
X20469D01*
X51200Y36900D02*
X58200D01*
X51200Y21400D02*
X58200D01*
Y36900D01*
X51200Y21400D02*
Y36900D01*
X54700Y27431D02*
Y31368D01*
X52732Y29400D02*
X56669D01*
X88400Y36666D02*
X95400D01*
X88400Y21166D02*
X95400D01*
Y36666D01*
X88400Y21166D02*
Y36666D01*
X91900Y27198D02*
Y31135D01*
X89931Y29166D02*
X93868D01*
X297332Y118974D02*
X301269D01*
X299300Y117006D02*
Y120942D01*
%TF.MD5,3bc2374d61adf756922d1df726f8e341*%
M02*
