%TF.GenerationSoftware,Altium Limited,Altium Designer,22.10.1 (41)*%
G04 Layer_Color=32768*
%FSLAX25Y25*%
%MOIN*%
%TF.SameCoordinates,4AA9267F-2698-4AE9-B1F6-D0915A06D3BE*%
%TF.FilePolarity,Positive*%
%TF.FileFunction,Other,Top_Component_Outline*%
%TF.Part,Single*%
G01*
G75*
%TA.AperFunction,NonConductor*%
%ADD81C,0.00600*%
%ADD110C,0.00394*%
D81*
X320324Y234948D02*
X322991Y233043D01*
Y235900D01*
X320324Y234948D02*
X324324D01*
X320324Y223424D02*
Y225519D01*
X321848Y224376D01*
Y224948D01*
X322038Y225328D01*
X322229Y225519D01*
X322800Y225709D01*
X323181D01*
X323752Y225519D01*
X324133Y225138D01*
X324324Y224567D01*
Y223995D01*
X324133Y223424D01*
X323943Y223234D01*
X323562Y223043D01*
X321086Y203594D02*
X320896Y203975D01*
X320324Y204547D01*
X324324D01*
X302214Y202493D02*
X302405Y202112D01*
X302786Y201731D01*
X303166Y201541D01*
X303738Y201350D01*
X304690D01*
X305261Y201541D01*
X305642Y201731D01*
X306023Y202112D01*
X306213Y202493D01*
Y203255D01*
X306023Y203636D01*
X305642Y204016D01*
X305261Y204207D01*
X304690Y204397D01*
X303738D01*
X303166Y204207D01*
X302786Y204016D01*
X302405Y203636D01*
X302214Y203255D01*
Y202493D01*
Y205330D02*
X306213D01*
X302214D02*
X306213Y207997D01*
X302214D02*
X306213D01*
X321277Y213234D02*
X321086D01*
X320705Y213424D01*
X320515Y213615D01*
X320324Y213996D01*
Y214757D01*
X320515Y215138D01*
X320705Y215329D01*
X321086Y215519D01*
X321467D01*
X321848Y215329D01*
X322419Y214948D01*
X324324Y213043D01*
Y215709D01*
D110*
X199109Y26543D02*
G03*
X199109Y26543I-787J0D01*
G01*
X293812Y197531D02*
X332788D01*
Y241469D01*
X293812D02*
X332788D01*
X293812Y197531D02*
Y241469D01*
X200093Y17685D02*
Y28315D01*
X186707D02*
X200093D01*
X186707Y17685D02*
Y28315D01*
Y17685D02*
X200093D01*
X36869Y208804D02*
Y229434D01*
Y204552D02*
Y206835D01*
X38444Y206540D02*
Y209099D01*
X36869Y206835D02*
X38444Y206540D01*
X36869Y208804D02*
X38444Y209099D01*
X36869Y231402D02*
Y233686D01*
Y229434D02*
X38444Y229139D01*
X36869Y231402D02*
X38444Y231698D01*
Y229139D02*
Y231698D01*
X9310Y204552D02*
Y233686D01*
X36869D01*
X9310Y204552D02*
X36869D01*
X153910Y204252D02*
X181469D01*
X153910Y233386D02*
X181469D01*
X153910Y204252D02*
Y233386D01*
X183044Y228839D02*
Y231398D01*
X181469Y231102D02*
X183044Y231398D01*
X181469Y229134D02*
X183044Y228839D01*
X181469Y231102D02*
Y233386D01*
Y208504D02*
X183044Y208799D01*
X181469Y206535D02*
X183044Y206240D01*
Y208799D01*
X181469Y204252D02*
Y206535D01*
Y208504D02*
Y229134D01*
X45310Y204552D02*
X72869D01*
X45310Y233686D02*
X72869D01*
X45310Y204552D02*
Y233686D01*
X74444Y229139D02*
Y231698D01*
X72869Y231402D02*
X74444Y231698D01*
X72869Y229434D02*
X74444Y229139D01*
X72869Y231402D02*
Y233686D01*
Y208804D02*
X74444Y209099D01*
X72869Y206835D02*
X74444Y206540D01*
Y209099D01*
X72869Y204552D02*
Y206835D01*
Y208804D02*
Y229434D01*
X81831Y204352D02*
X109390D01*
X81831Y233486D02*
X109390D01*
X81831Y204352D02*
Y233486D01*
X110965Y228939D02*
Y231498D01*
X109390Y231202D02*
X110965Y231498D01*
X109390Y229234D02*
X110965Y228939D01*
X109390Y231202D02*
Y233486D01*
Y208604D02*
X110965Y208899D01*
X109390Y206635D02*
X110965Y206340D01*
Y208899D01*
X109390Y204352D02*
Y206635D01*
Y208604D02*
Y229234D01*
X117720Y204352D02*
X145280D01*
X117720Y233486D02*
X145280D01*
X117720Y204352D02*
Y233486D01*
X146854Y228939D02*
Y231498D01*
X145280Y231202D02*
X146854Y231498D01*
X145280Y229234D02*
X146854Y228939D01*
X145280Y231202D02*
Y233486D01*
Y208604D02*
X146854Y208899D01*
X145280Y206635D02*
X146854Y206340D01*
Y208899D01*
X145280Y204352D02*
Y206635D01*
Y208604D02*
Y229234D01*
%TF.MD5,9f1dae68f8ec81c1de92004b871437c9*%
M02*
