%TF.GenerationSoftware,Altium Limited,Altium Designer,22.10.1 (41)*%
G04 Layer_Color=32768*
%FSLAX25Y25*%
%MOIN*%
%TF.SameCoordinates,4AA9267F-2698-4AE9-B1F6-D0915A06D3BE*%
%TF.FilePolarity,Positive*%
%TF.FileFunction,Other,Top_3D_Body*%
%TF.Part,Single*%
G01*
G75*
%TA.AperFunction,NonConductor*%
%ADD110C,0.00394*%
D110*
X9310Y204552D02*
X36869D01*
X9310Y233686D02*
X36869D01*
X9310Y204552D02*
Y233686D01*
X38444Y229139D02*
Y231698D01*
X36869Y231402D02*
X38444Y231698D01*
X36869Y229434D02*
X38444Y229139D01*
X36869Y231402D02*
Y233686D01*
Y208804D02*
X38444Y209099D01*
X36869Y206835D02*
X38444Y206540D01*
Y209099D01*
X36869Y204552D02*
Y206835D01*
Y208804D02*
Y229434D01*
X181469Y208504D02*
Y229134D01*
Y204252D02*
Y206535D01*
X183044Y206240D02*
Y208799D01*
X181469Y206535D02*
X183044Y206240D01*
X181469Y208504D02*
X183044Y208799D01*
X181469Y231102D02*
Y233386D01*
Y229134D02*
X183044Y228839D01*
X181469Y231102D02*
X183044Y231398D01*
Y228839D02*
Y231398D01*
X153910Y204252D02*
Y233386D01*
X181469D01*
X153910Y204252D02*
X181469D01*
X72869Y208804D02*
Y229434D01*
Y204552D02*
Y206835D01*
X74444Y206540D02*
Y209099D01*
X72869Y206835D02*
X74444Y206540D01*
X72869Y208804D02*
X74444Y209099D01*
X72869Y231402D02*
Y233686D01*
Y229434D02*
X74444Y229139D01*
X72869Y231402D02*
X74444Y231698D01*
Y229139D02*
Y231698D01*
X45310Y204552D02*
Y233686D01*
X72869D01*
X45310Y204552D02*
X72869D01*
X109390Y208604D02*
Y229234D01*
Y204352D02*
Y206635D01*
X110965Y206340D02*
Y208899D01*
X109390Y206635D02*
X110965Y206340D01*
X109390Y208604D02*
X110965Y208899D01*
X109390Y231202D02*
Y233486D01*
Y229234D02*
X110965Y228939D01*
X109390Y231202D02*
X110965Y231498D01*
Y228939D02*
Y231498D01*
X81831Y204352D02*
Y233486D01*
X109390D01*
X81831Y204352D02*
X109390D01*
X145280Y208604D02*
Y229234D01*
Y204352D02*
Y206635D01*
X146854Y206340D02*
Y208899D01*
X145280Y206635D02*
X146854Y206340D01*
X145280Y208604D02*
X146854Y208899D01*
X145280Y231202D02*
Y233486D01*
Y229234D02*
X146854Y228939D01*
X145280Y231202D02*
X146854Y231498D01*
Y228939D02*
Y231498D01*
X117720Y204352D02*
Y233486D01*
X145280D01*
X117720Y204352D02*
X145280D01*
%TF.MD5,818e0636f87eb2e10d527ff124850e11*%
M02*
