%TF.GenerationSoftware,Altium Limited,Altium Designer,22.10.1 (41)*%
G04 Layer_Color=65535*
%FSLAX25Y25*%
%MOIN*%
%TF.SameCoordinates,4AA9267F-2698-4AE9-B1F6-D0915A06D3BE*%
%TF.FilePolarity,Positive*%
%TF.FileFunction,Legend,Top*%
%TF.Part,Single*%
G01*
G75*
%TA.AperFunction,NonConductor*%
%ADD56C,0.01000*%
%ADD74C,0.00787*%
%ADD75C,0.00400*%
%ADD76C,0.00800*%
%ADD77C,0.00500*%
%ADD78C,0.01500*%
%ADD79C,0.02362*%
%ADD80C,0.00984*%
%ADD81C,0.00600*%
%ADD82R,0.03000X0.01968*%
G36*
X9652Y54188D02*
Y51803D01*
X7301D01*
Y54188D01*
X9652D01*
D02*
G37*
G36*
X45852Y54256D02*
Y51871D01*
X43501D01*
Y54256D01*
X45852D01*
D02*
G37*
G36*
X82952Y53988D02*
Y51603D01*
X80601D01*
Y53988D01*
X82952D01*
D02*
G37*
G36*
X119052Y53888D02*
Y51503D01*
X116701D01*
Y53888D01*
X119052D01*
D02*
G37*
D56*
X166600Y18300D02*
Y24993D01*
X144947D02*
X166600D01*
X144947Y11607D02*
Y24993D01*
Y11607D02*
X166600D01*
Y18300D01*
X240000Y15700D02*
X294000D01*
Y27700D01*
X240000Y15700D02*
Y27700D01*
X294000D01*
X342700Y189600D02*
X350100D01*
X342700Y204100D02*
X350100D01*
X202900Y128200D02*
Y140200D01*
X158900Y128200D02*
X202900D01*
X169900Y140200D02*
X202900D01*
X158900Y128200D02*
Y135200D01*
Y140200D01*
X169900D01*
X339600Y15700D02*
Y27700D01*
X295600Y15700D02*
X339600D01*
X306600Y27700D02*
X339600D01*
X295600Y15700D02*
Y22700D01*
Y27700D01*
X306600D01*
X258300Y203500D02*
Y237500D01*
X270300D01*
Y203500D02*
Y237500D01*
X258300Y203500D02*
X270300D01*
X242600Y183700D02*
Y237700D01*
Y183700D02*
X254600D01*
X242600Y237700D02*
X254600D01*
Y183700D02*
Y237700D01*
X158000Y114600D02*
X224000D01*
X158000D02*
Y126600D01*
X224000D01*
Y114600D02*
Y126600D01*
X168800Y57700D02*
Y64393D01*
X147146D02*
X168800D01*
X147146Y51007D02*
Y64393D01*
Y51007D02*
X168800D01*
Y57700D01*
X213800Y139900D02*
X227800D01*
X213800Y233900D02*
X227800D01*
Y139900D02*
Y233900D01*
X213800Y139900D02*
Y233900D01*
X347600Y144607D02*
Y151300D01*
Y144607D02*
X369253D01*
Y157993D01*
X347600D02*
X369253D01*
X347600Y151300D02*
Y157993D01*
X347547Y136000D02*
Y142693D01*
X369200D01*
Y129307D02*
Y142693D01*
X347547Y129307D02*
X369200D01*
X347547D02*
Y136000D01*
X230933Y111233D02*
X231599Y111899D01*
Y113232D01*
X230933Y113898D01*
X228267D01*
X227601Y113232D01*
Y111899D01*
X228267Y111233D01*
X227601Y109900D02*
Y108567D01*
Y109233D01*
X231599D01*
X230933Y109900D01*
X227601Y104568D02*
X231599D01*
X229600Y106567D01*
Y103902D01*
X101999Y50232D02*
X98667D01*
X98001Y49566D01*
Y48233D01*
X98667Y47566D01*
X101999D01*
X98001Y46233D02*
Y44900D01*
Y45567D01*
X101999D01*
X101333Y46233D01*
X98001Y42901D02*
Y41568D01*
Y42235D01*
X101999D01*
X101333Y42901D01*
X13600Y237899D02*
X17599D01*
X15599Y239899D02*
Y235900D01*
X49700Y237999D02*
X53699D01*
X51699Y239999D02*
Y236000D01*
X85700Y237799D02*
X89699D01*
X87699Y239799D02*
Y235800D01*
X121800Y237599D02*
X125799D01*
X123799Y239599D02*
Y235600D01*
X157900Y237899D02*
X161899D01*
X159899Y239899D02*
Y235900D01*
X290117Y202766D02*
X289701Y202350D01*
Y201517D01*
X290117Y201100D01*
X290534D01*
X290950Y201517D01*
Y202350D01*
X291367Y202766D01*
X291783D01*
X292200Y202350D01*
Y201517D01*
X291783Y201100D01*
X289701Y203599D02*
Y205265D01*
Y204432D01*
X292200D01*
Y206098D02*
X289701D01*
X290534Y206931D01*
X289701Y207765D01*
X292200D01*
X289601Y212966D02*
Y211300D01*
X292100D01*
Y212966D01*
X290850Y211300D02*
Y212133D01*
X290017Y215465D02*
X289601Y215049D01*
Y214216D01*
X290017Y213799D01*
X290434D01*
X290850Y214216D01*
Y215049D01*
X291267Y215465D01*
X291684D01*
X292100Y215049D01*
Y214216D01*
X291684Y213799D01*
X292100Y216298D02*
X289601D01*
Y217548D01*
X290017Y217965D01*
X290850D01*
X291267Y217548D01*
Y216298D01*
X289601Y222866D02*
Y221200D01*
X292100D01*
Y222866D01*
X290850Y221200D02*
Y222033D01*
X290017Y225365D02*
X289601Y224949D01*
Y224116D01*
X290017Y223699D01*
X290434D01*
X290850Y224116D01*
Y224949D01*
X291267Y225365D01*
X291684D01*
X292100Y224949D01*
Y224116D01*
X291684Y223699D01*
X292100Y226198D02*
X289601D01*
Y227448D01*
X290017Y227865D01*
X290850D01*
X291267Y227448D01*
Y226198D01*
X290017Y232966D02*
X289601Y232550D01*
Y231716D01*
X290017Y231300D01*
X290434D01*
X290850Y231716D01*
Y232550D01*
X291267Y232966D01*
X291684D01*
X292100Y232550D01*
Y231716D01*
X291684Y231300D01*
X289601Y233799D02*
Y235465D01*
Y234632D01*
X292100D01*
Y236298D02*
X289601D01*
X290434Y237131D01*
X289601Y237965D01*
X292100D01*
X218101Y130199D02*
X217601Y129700D01*
Y128700D01*
X218101Y128200D01*
X220100D01*
X220600Y128700D01*
Y129700D01*
X220100Y130199D01*
X217601Y131199D02*
X220600D01*
Y133198D01*
X217601Y134198D02*
X220600D01*
X219600D01*
X217601Y136197D01*
X219100Y134698D01*
X220600Y136197D01*
X180001Y105000D02*
X179501Y105500D01*
Y106500D01*
X180001Y106999D01*
X180501D01*
X181000Y106500D01*
Y106000D01*
Y106500D01*
X181500Y106999D01*
X182000D01*
X182500Y106500D01*
Y105500D01*
X182000Y105000D01*
X182500Y109998D02*
Y107999D01*
X180501Y109998D01*
X180001D01*
X179501Y109499D01*
Y108499D01*
X180001Y107999D01*
X179501Y110998D02*
X182500D01*
X181500D01*
X179501Y112997D01*
X181000Y111498D01*
X182500Y112997D01*
X175701Y106899D02*
X175201Y106400D01*
Y105400D01*
X175701Y104900D01*
X176201D01*
X176700Y105400D01*
Y106400D01*
X177200Y106899D01*
X177700D01*
X178200Y106400D01*
Y105400D01*
X177700Y104900D01*
Y109898D02*
X175701D01*
X175201Y109399D01*
Y108399D01*
X175701Y107899D01*
X177700D01*
X178200Y108399D01*
Y109399D01*
X177200Y108899D02*
X178200Y109898D01*
Y109399D02*
X177700Y109898D01*
X175201Y110898D02*
X178200D01*
X177200Y111898D01*
X178200Y112897D01*
X175201D01*
X171401Y106999D02*
X170901Y106500D01*
Y105500D01*
X171401Y105000D01*
X171901D01*
X172400Y105500D01*
Y106500D01*
X172900Y106999D01*
X173400D01*
X173900Y106500D01*
Y105500D01*
X173400Y105000D01*
X171401Y109998D02*
X170901Y109499D01*
Y108499D01*
X171401Y107999D01*
X173400D01*
X173900Y108499D01*
Y109499D01*
X173400Y109998D01*
X170901Y110998D02*
X173900D01*
Y112997D01*
X167101Y106899D02*
X166601Y106400D01*
Y105400D01*
X167101Y104900D01*
X167601D01*
X168101Y105400D01*
Y106400D01*
X168600Y106899D01*
X169100D01*
X169600Y106400D01*
Y105400D01*
X169100Y104900D01*
X166601Y107899D02*
X169600D01*
Y109399D01*
X169100Y109898D01*
X167101D01*
X166601Y109399D01*
Y107899D01*
X169600Y110898D02*
X167601D01*
X166601Y111898D01*
X167601Y112897D01*
X169600D01*
X168101D01*
Y110898D01*
X162301Y105000D02*
X164300D01*
X165300Y106000D01*
X164300Y106999D01*
X162301D01*
X162801Y109998D02*
X162301Y109499D01*
Y108499D01*
X162801Y107999D01*
X164800D01*
X165300Y108499D01*
Y109499D01*
X164800Y109998D01*
X162801Y112997D02*
X162301Y112498D01*
Y111498D01*
X162801Y110998D01*
X164800D01*
X165300Y111498D01*
Y112498D01*
X164800Y112997D01*
X158401Y107099D02*
X157901Y106599D01*
Y105600D01*
X158401Y105100D01*
X160400D01*
X160900Y105600D01*
Y106599D01*
X160400Y107099D01*
X159400D01*
Y106100D01*
X160900Y108099D02*
X157901D01*
X160900Y110098D01*
X157901D01*
Y111098D02*
X160900D01*
Y112598D01*
X160400Y113097D01*
X158401D01*
X157901Y112598D01*
Y111098D01*
X204200Y166500D02*
Y169499D01*
X205699D01*
X206199Y168999D01*
Y167999D01*
X205699Y167500D01*
X204200D01*
X205200D02*
X206199Y166500D01*
X209198Y168999D02*
X208699Y169499D01*
X207699D01*
X207199Y168999D01*
Y168499D01*
X207699Y167999D01*
X208699D01*
X209198Y167500D01*
Y167000D01*
X208699Y166500D01*
X207699D01*
X207199Y167000D01*
X210198Y169499D02*
X212197D01*
X211198D01*
Y166500D01*
X213101Y128200D02*
X216100D01*
Y129700D01*
X215600Y130199D01*
X213601D01*
X213101Y129700D01*
Y128200D01*
Y131199D02*
Y132199D01*
Y131699D01*
X216100D01*
Y131199D01*
Y132199D01*
X213101Y135198D02*
Y134198D01*
X213601Y133698D01*
X215600D01*
X216100Y134198D01*
Y135198D01*
X215600Y135698D01*
X213601D01*
X213101Y135198D01*
X209201Y128300D02*
X208701Y128800D01*
Y129799D01*
X209201Y130299D01*
X209701D01*
X210201Y129799D01*
Y129300D01*
Y129799D01*
X210700Y130299D01*
X211200D01*
X211700Y129799D01*
Y128800D01*
X211200Y128300D01*
X208701Y131299D02*
X210700D01*
X211700Y132299D01*
X210700Y133298D01*
X208701D01*
X209201Y134298D02*
X208701Y134798D01*
Y135798D01*
X209201Y136297D01*
X209701D01*
X210201Y135798D01*
Y135298D01*
Y135798D01*
X210700Y136297D01*
X211200D01*
X211700Y135798D01*
Y134798D01*
X211200Y134298D01*
X204701Y130299D02*
X204201Y129799D01*
Y128800D01*
X204701Y128300D01*
X206700D01*
X207200Y128800D01*
Y129799D01*
X206700Y130299D01*
X205700D01*
Y129300D01*
X207200Y131299D02*
X204201D01*
X207200Y133298D01*
X204201D01*
Y134298D02*
X207200D01*
Y135798D01*
X206700Y136297D01*
X204701D01*
X204201Y135798D01*
Y134298D01*
X256434Y209700D02*
Y211033D01*
X255767Y210366D02*
X257100D01*
X256300Y229500D02*
Y231499D01*
X233300Y219099D02*
X234300D01*
X233800D01*
Y216100D01*
X233300D01*
X234300D01*
X235799D02*
Y219099D01*
X237299D01*
X237799Y218599D01*
Y217600D01*
X237299Y217100D01*
X235799D01*
X236799D02*
X237799Y216100D01*
X240798Y216600D02*
Y218599D01*
X240298Y219099D01*
X239298D01*
X238798Y218599D01*
Y216600D01*
X239298Y216100D01*
X240298D01*
X239798Y217100D02*
X240798Y216100D01*
X240298D02*
X240798Y216600D01*
X235800Y223699D02*
Y220700D01*
X237299D01*
X237799Y221200D01*
Y223199D01*
X237299Y223699D01*
X235800D01*
X240299D02*
X239299D01*
X238799Y223199D01*
Y221200D01*
X239299Y220700D01*
X240299D01*
X240798Y221200D01*
Y223199D01*
X240299Y223699D01*
X233300Y228299D02*
Y225300D01*
X234800D01*
X235299Y225800D01*
Y227799D01*
X234800Y228299D01*
X233300D01*
X236299D02*
X237299D01*
X236799D01*
Y225300D01*
X236299D01*
X237299D01*
X238798D02*
Y228299D01*
X240798Y225300D01*
Y228299D01*
X237999Y232399D02*
X237499Y232899D01*
X236500D01*
X236000Y232399D01*
Y230400D01*
X236500Y229900D01*
X237499D01*
X237999Y230400D01*
X240998Y232399D02*
X240498Y232899D01*
X239499D01*
X238999Y232399D01*
Y231899D01*
X239499Y231399D01*
X240498D01*
X240998Y230900D01*
Y230400D01*
X240498Y229900D01*
X239499D01*
X238999Y230400D01*
X235099Y236799D02*
X234599Y237299D01*
X233600D01*
X233100Y236799D01*
Y234800D01*
X233600Y234300D01*
X234599D01*
X235099Y234800D01*
X236099Y237299D02*
Y234300D01*
X238098D01*
X239098Y237299D02*
Y234300D01*
Y235300D01*
X241097Y237299D01*
X239598Y235800D01*
X241097Y234300D01*
X204100Y183199D02*
Y181200D01*
X205100Y180200D01*
X206099Y181200D01*
Y183199D01*
X209098Y182699D02*
X208598Y183199D01*
X207599D01*
X207099Y182699D01*
Y180700D01*
X207599Y180200D01*
X208598D01*
X209098Y180700D01*
X212097Y182699D02*
X211598Y183199D01*
X210598D01*
X210098Y182699D01*
Y180700D01*
X210598Y180200D01*
X211598D01*
X212097Y180700D01*
X206199Y178199D02*
X205699Y178699D01*
X204700D01*
X204200Y178199D01*
Y176200D01*
X204700Y175700D01*
X205699D01*
X206199Y176200D01*
Y177199D01*
X205200D01*
X207199Y175700D02*
Y178699D01*
X209198Y175700D01*
Y178699D01*
X210198D02*
Y175700D01*
X211698D01*
X212197Y176200D01*
Y178199D01*
X211698Y178699D01*
X210198D01*
X209199Y173599D02*
X208699Y174099D01*
X207700D01*
X207200Y173599D01*
Y171600D01*
X207700Y171100D01*
X208699D01*
X209199Y171600D01*
X212198Y173599D02*
X211699Y174099D01*
X210699D01*
X210199Y173599D01*
Y173099D01*
X210699Y172599D01*
X211699D01*
X212198Y172100D01*
Y171600D01*
X211699Y171100D01*
X210699D01*
X210199Y171600D01*
X207200Y164999D02*
Y162000D01*
X208699D01*
X209199Y162500D01*
Y164499D01*
X208699Y164999D01*
X207200D01*
X212198Y164499D02*
X211699Y164999D01*
X210699D01*
X210199Y164499D01*
Y162500D01*
X210699Y162000D01*
X211699D01*
X212198Y162500D01*
X202200Y157500D02*
Y160499D01*
X203200Y159499D01*
X204199Y160499D01*
Y157500D01*
X206698Y160499D02*
X205699D01*
X205199Y159999D01*
Y158000D01*
X205699Y157500D01*
X206698D01*
X207198Y158000D01*
Y159999D01*
X206698Y160499D01*
X210197Y159999D02*
X209698Y160499D01*
X208698D01*
X208198Y159999D01*
Y159499D01*
X208698Y159000D01*
X209698D01*
X210197Y158500D01*
Y158000D01*
X209698Y157500D01*
X208698D01*
X208198Y158000D01*
X211197Y160499D02*
X212197D01*
X211697D01*
Y157500D01*
X211197D01*
X212197D01*
X206199Y155399D02*
X205699Y155899D01*
X204700D01*
X204200Y155399D01*
Y154899D01*
X204700Y154400D01*
X205699D01*
X206199Y153900D01*
Y153400D01*
X205699Y152900D01*
X204700D01*
X204200Y153400D01*
X209198Y155399D02*
X208699Y155899D01*
X207699D01*
X207199Y155399D01*
Y153400D01*
X207699Y152900D01*
X208699D01*
X209198Y153400D01*
X210198Y155899D02*
Y152900D01*
Y153900D01*
X212197Y155899D01*
X210698Y154400D01*
X212197Y152900D01*
X204200Y151199D02*
Y148200D01*
X206199D01*
X209198Y151199D02*
X207199D01*
Y148200D01*
X209198D01*
X207199Y149699D02*
X208199D01*
X210198Y151199D02*
Y148200D01*
X211698D01*
X212197Y148700D01*
Y150699D01*
X211698Y151199D01*
X210198D01*
X201700Y143700D02*
Y146699D01*
X202700Y145699D01*
X203699Y146699D01*
Y143700D01*
X204699Y146699D02*
X205699D01*
X205199D01*
Y143700D01*
X204699D01*
X205699D01*
X209198Y146199D02*
X208698Y146699D01*
X207698D01*
X207198Y146199D01*
Y145699D01*
X207698Y145200D01*
X208698D01*
X209198Y144700D01*
Y144200D01*
X208698Y143700D01*
X207698D01*
X207198Y144200D01*
X211697Y146699D02*
X210697D01*
X210197Y146199D01*
Y144200D01*
X210697Y143700D01*
X211697D01*
X212197Y144200D01*
Y146199D01*
X211697Y146699D01*
X343068Y231299D02*
Y227967D01*
X343734Y227301D01*
X345067D01*
X345734Y227967D01*
Y231299D01*
X347066Y230633D02*
X347733Y231299D01*
X349066D01*
X349732Y230633D01*
Y229966D01*
X349066Y229300D01*
X348399D01*
X349066D01*
X349732Y228634D01*
Y227967D01*
X349066Y227301D01*
X347733D01*
X347066Y227967D01*
X38701Y105768D02*
X42699D01*
Y107767D01*
X42033Y108433D01*
X39367D01*
X38701Y107767D01*
Y105768D01*
Y112432D02*
X39367Y111099D01*
X40700Y109766D01*
X42033D01*
X42699Y110433D01*
Y111766D01*
X42033Y112432D01*
X41366D01*
X40700Y111766D01*
Y109766D01*
X182352Y144250D02*
X181853Y144749D01*
X180853D01*
X180353Y144250D01*
Y143750D01*
X180853Y143250D01*
X181853D01*
X182352Y142750D01*
Y142250D01*
X181853Y141750D01*
X180853D01*
X180353Y142250D01*
X183352Y144749D02*
X185352D01*
X184352D01*
Y141750D01*
X186351Y141251D02*
X188351D01*
X189350Y144749D02*
Y141750D01*
X191350D01*
X192349Y144749D02*
X193349D01*
X192849D01*
Y141750D01*
X192349D01*
X193349D01*
X194849D02*
Y144749D01*
X196848Y141750D01*
Y144749D01*
X197847D02*
Y141750D01*
Y142750D01*
X199847Y144749D01*
X198347Y143250D01*
X199847Y141750D01*
X238000Y183402D02*
Y185402D01*
Y184402D01*
X241000D01*
X238000Y187901D02*
Y186901D01*
X238500Y186401D01*
X240500D01*
X241000Y186901D01*
Y187901D01*
X240500Y188401D01*
X238500D01*
X238000Y187901D01*
Y189400D02*
X240500D01*
X241000Y189900D01*
Y190900D01*
X240500Y191400D01*
X238000D01*
X238500Y194399D02*
X238000Y193899D01*
Y192899D01*
X238500Y192399D01*
X240500D01*
X241000Y192899D01*
Y193899D01*
X240500Y194399D01*
X238000Y195398D02*
X241000D01*
X239500D01*
Y197398D01*
X238000D01*
X241000D01*
X271951Y204300D02*
Y207299D01*
X273451D01*
X273951Y206800D01*
Y205800D01*
X273451Y205300D01*
X271951D01*
X274950Y207299D02*
X275950D01*
X275450D01*
Y204300D01*
X274950D01*
X275950D01*
X277449D02*
Y207299D01*
X278949D01*
X279449Y206800D01*
Y205800D01*
X278949Y205300D01*
X277449D01*
X278449D02*
X279449Y204300D01*
X189903Y112999D02*
Y110001D01*
X191402D01*
X191902Y110500D01*
Y112500D01*
X191402Y112999D01*
X189903D01*
X194901Y112500D02*
X194401Y112999D01*
X193402D01*
X192902Y112500D01*
Y112000D01*
X193402Y111500D01*
X194401D01*
X194901Y111000D01*
Y110500D01*
X194401Y110001D01*
X193402D01*
X192902Y110500D01*
X195901Y112500D02*
X196400Y112999D01*
X197400D01*
X197900Y112500D01*
Y112000D01*
X197400Y111500D01*
X196900D01*
X197400D01*
X197900Y111000D01*
Y110500D01*
X197400Y110001D01*
X196400D01*
X195901Y110500D01*
X200899Y110001D02*
X198900D01*
X200899Y112000D01*
Y112500D01*
X200399Y112999D01*
X199399D01*
X198900Y112500D01*
X201899D02*
X202399Y112999D01*
X203398D01*
X203898Y112500D01*
Y112000D01*
X203398Y111500D01*
X202898D01*
X203398D01*
X203898Y111000D01*
Y110500D01*
X203398Y110001D01*
X202399D01*
X201899Y110500D01*
X204898Y110001D02*
X205897D01*
X205398D01*
Y112999D01*
X204898Y112500D01*
X362599Y200100D02*
Y202099D01*
X361100D01*
Y201100D01*
Y202099D01*
X359600D01*
Y199100D02*
Y198101D01*
Y198600D01*
X362599D01*
X362100Y199100D01*
X209101Y215603D02*
Y216603D01*
Y216103D01*
X212100D01*
Y215603D01*
Y216603D01*
X209101Y218102D02*
X212100D01*
Y220101D01*
X209101Y221101D02*
Y222101D01*
Y221601D01*
X212100D01*
Y221101D01*
Y222101D01*
X211600Y223600D02*
X212100Y224100D01*
Y225100D01*
X211600Y225600D01*
X209600D01*
X209101Y225100D01*
Y224100D01*
X209600Y223600D01*
X210100D01*
X210600Y224100D01*
Y225600D01*
X209600Y226599D02*
X209101Y227099D01*
Y228099D01*
X209600Y228599D01*
X210100D01*
X210600Y228099D01*
Y227599D01*
Y228099D01*
X211100Y228599D01*
X211600D01*
X212100Y228099D01*
Y227099D01*
X211600Y226599D01*
X212100Y231098D02*
X209101D01*
X210600Y229598D01*
Y231598D01*
X212100Y232597D02*
Y233597D01*
Y233097D01*
X209101D01*
X209600Y232597D01*
X199101Y92532D02*
X203099D01*
Y90533D01*
X202433Y89866D01*
X201100D01*
X200433Y90533D01*
Y92532D01*
Y91199D02*
X199101Y89866D01*
Y86534D02*
X203099D01*
X201100Y88534D01*
Y85868D01*
X265067Y45833D02*
X265483Y46250D01*
X266317D01*
X266733Y45833D01*
Y45417D01*
X266317Y45000D01*
X266733Y44583D01*
Y44167D01*
X266317Y43750D01*
X265483D01*
X265067Y44167D01*
Y44583D01*
X265483Y45000D01*
X265067Y45417D01*
Y45833D01*
X265483Y45000D02*
X266317D01*
X175501Y55001D02*
X176834D01*
X176167D01*
Y58999D01*
X175501Y58333D01*
X181499Y58999D02*
X180166Y58333D01*
X178833Y57000D01*
Y55667D01*
X179500Y55001D01*
X180833D01*
X181499Y55667D01*
Y56334D01*
X180833Y57000D01*
X178833D01*
X219751Y22701D02*
X220750D01*
X220251D01*
Y25699D01*
X219751Y25200D01*
X224249Y25699D02*
X222250D01*
Y24200D01*
X223250Y24700D01*
X223749D01*
X224249Y24200D01*
Y23200D01*
X223749Y22701D01*
X222750D01*
X222250Y23200D01*
X213151Y22601D02*
X214150D01*
X213651D01*
Y25600D01*
X213151Y25100D01*
X217149Y22601D02*
Y25600D01*
X215650Y24100D01*
X217649D01*
X281226Y62450D02*
X282059D01*
X281642D01*
Y64950D01*
X281226Y64533D01*
X283308D02*
X283725Y64950D01*
X284558D01*
X284974Y64533D01*
Y64117D01*
X284558Y63700D01*
X284141D01*
X284558D01*
X284974Y63283D01*
Y62867D01*
X284558Y62450D01*
X283725D01*
X283308Y62867D01*
X277526Y68350D02*
X278359D01*
X277942D01*
Y70850D01*
X277526Y70433D01*
X281274Y68350D02*
X279608D01*
X281274Y70016D01*
Y70433D01*
X280858Y70850D01*
X280025D01*
X279608Y70433D01*
X274542Y74350D02*
X275375D01*
X274959D01*
Y76850D01*
X274542Y76433D01*
X276625Y74350D02*
X277458D01*
X277041D01*
Y76850D01*
X276625Y76433D01*
X270026Y80150D02*
X270859D01*
X270442D01*
Y82650D01*
X270026Y82233D01*
X272108D02*
X272525Y82650D01*
X273358D01*
X273774Y82233D01*
Y80567D01*
X273358Y80150D01*
X272525D01*
X272108Y80567D01*
Y82233D01*
X247967Y98767D02*
X248383Y98350D01*
X249217D01*
X249633Y98767D01*
Y100433D01*
X249217Y100850D01*
X248383D01*
X247967Y100433D01*
Y100016D01*
X248383Y99600D01*
X249633D01*
X266067Y52850D02*
X267733D01*
Y52433D01*
X266067Y50767D01*
Y50350D01*
X274133Y46350D02*
X273300Y45933D01*
X272467Y45100D01*
Y44267D01*
X272884Y43850D01*
X273716D01*
X274133Y44267D01*
Y44684D01*
X273716Y45100D01*
X272467D01*
X274433Y52650D02*
X272767D01*
Y51400D01*
X273600Y51816D01*
X274016D01*
X274433Y51400D01*
Y50567D01*
X274016Y50150D01*
X273183D01*
X272767Y50567D01*
X281417Y43750D02*
Y46250D01*
X280167Y45000D01*
X281833D01*
X280467Y52333D02*
X280884Y52750D01*
X281716D01*
X282133Y52333D01*
Y51916D01*
X281716Y51500D01*
X281300D01*
X281716D01*
X282133Y51083D01*
Y50667D01*
X281716Y50250D01*
X280884D01*
X280467Y50667D01*
X289733Y43850D02*
X288067D01*
X289733Y45516D01*
Y45933D01*
X289317Y46350D01*
X288484D01*
X288067Y45933D01*
X288583Y50350D02*
X289417D01*
X289000D01*
Y52850D01*
X288583Y52433D01*
X190434Y34299D02*
Y33633D01*
X191767Y32300D01*
X193100Y33633D01*
Y34299D01*
X191767Y32300D02*
Y30301D01*
X194433D02*
X195766D01*
X195099D01*
Y34299D01*
X194433Y33633D01*
X156034Y181399D02*
Y178734D01*
X157367Y177401D01*
X158700Y178734D01*
Y181399D01*
X160033Y177401D02*
X161366D01*
X160699D01*
Y181399D01*
X160033Y180733D01*
X137799Y50098D02*
X134467D01*
X133801Y49432D01*
Y48099D01*
X134467Y47433D01*
X137799D01*
X133801Y46100D02*
Y44767D01*
Y45433D01*
X137799D01*
X137133Y46100D01*
X133801Y40768D02*
X137799D01*
X135800Y42767D01*
Y40102D01*
X28699Y51798D02*
X25367D01*
X24701Y51132D01*
Y49799D01*
X25367Y49133D01*
X28699D01*
X24701Y47800D02*
Y46467D01*
Y47133D01*
X28699D01*
X28033Y47800D01*
Y44467D02*
X28699Y43801D01*
Y42468D01*
X28033Y41802D01*
X27366D01*
X26700Y42468D01*
Y43134D01*
Y42468D01*
X26034Y41802D01*
X25367D01*
X24701Y42468D01*
Y43801D01*
X25367Y44467D01*
X64899Y51798D02*
X61567D01*
X60901Y51132D01*
Y49799D01*
X61567Y49133D01*
X64899D01*
X60901Y47800D02*
Y46467D01*
Y47133D01*
X64899D01*
X64233Y47800D01*
X60901Y41802D02*
Y44467D01*
X63566Y41802D01*
X64233D01*
X64899Y42468D01*
Y43801D01*
X64233Y44467D01*
X286101Y161468D02*
X289433D01*
X290099Y162134D01*
Y163467D01*
X289433Y164134D01*
X286101D01*
X290099Y167466D02*
X286101D01*
X288100Y165466D01*
Y168132D01*
X248134Y91299D02*
Y87967D01*
X248801Y87301D01*
X250134D01*
X250800Y87967D01*
Y91299D01*
X252133Y87301D02*
X253466D01*
X252799D01*
Y91299D01*
X252133Y90633D01*
X312867Y216801D02*
X312201Y216134D01*
Y214801D01*
X312867Y214135D01*
X313533D01*
X314200Y214801D01*
Y216134D01*
X314866Y216801D01*
X315533D01*
X316199Y216134D01*
Y214801D01*
X315533Y214135D01*
X312201Y218134D02*
X316199D01*
X314866Y219466D01*
X316199Y220799D01*
X312201D01*
X316199Y222132D02*
Y223465D01*
Y222799D01*
X312201D01*
X312867Y222132D01*
X119035Y92301D02*
Y96299D01*
X121034D01*
X121701Y95633D01*
Y94300D01*
X121034Y93634D01*
X119035D01*
X120368D02*
X121701Y92301D01*
X125699D02*
X123033D01*
X125699Y94966D01*
Y95633D01*
X125033Y96299D01*
X123700D01*
X123033Y95633D01*
X127032Y92301D02*
X128365D01*
X127699D01*
Y96299D01*
X127032Y95633D01*
X8668Y92401D02*
Y96399D01*
X10668D01*
X11334Y95733D01*
Y94400D01*
X10668Y93734D01*
X8668D01*
X10001D02*
X11334Y92401D01*
X15333D02*
X12667D01*
X15333Y95066D01*
Y95733D01*
X14667Y96399D01*
X13333D01*
X12667Y95733D01*
X16666D02*
X17332Y96399D01*
X18665D01*
X19332Y95733D01*
Y93067D01*
X18665Y92401D01*
X17332D01*
X16666Y93067D01*
Y95733D01*
X116001Y19498D02*
X119999D01*
Y17499D01*
X119333Y16833D01*
X118000D01*
X117333Y17499D01*
Y19498D01*
Y18166D02*
X116001Y16833D01*
Y15500D02*
Y14167D01*
Y14833D01*
X119999D01*
X119333Y15500D01*
X116667Y12167D02*
X116001Y11501D01*
Y10168D01*
X116667Y9502D01*
X119333D01*
X119999Y10168D01*
Y11501D01*
X119333Y12167D01*
X118667D01*
X118000Y11501D01*
Y9502D01*
X3202Y16201D02*
Y20199D01*
X5201D01*
X5867Y19533D01*
Y18200D01*
X5201Y17534D01*
X3202D01*
X4535D02*
X5867Y16201D01*
X7200D02*
X8533D01*
X7867D01*
Y20199D01*
X7200Y19533D01*
X10533D02*
X11199Y20199D01*
X12532D01*
X13198Y19533D01*
Y18867D01*
X12532Y18200D01*
X13198Y17534D01*
Y16867D01*
X12532Y16201D01*
X11199D01*
X10533Y16867D01*
Y17534D01*
X11199Y18200D01*
X10533Y18867D01*
Y19533D01*
X11199Y18200D02*
X12532D01*
X45702Y92501D02*
Y96499D01*
X47701D01*
X48367Y95833D01*
Y94500D01*
X47701Y93834D01*
X45702D01*
X47034D02*
X48367Y92501D01*
X49700D02*
X51033D01*
X50367D01*
Y96499D01*
X49700Y95833D01*
X53033Y96499D02*
X55698D01*
Y95833D01*
X53033Y93167D01*
Y92501D01*
X82502Y92101D02*
Y96099D01*
X84501D01*
X85167Y95433D01*
Y94100D01*
X84501Y93434D01*
X82502D01*
X83834D02*
X85167Y92101D01*
X86500D02*
X87833D01*
X87167D01*
Y96099D01*
X86500Y95433D01*
X92498Y96099D02*
X91166Y95433D01*
X89833Y94100D01*
Y92767D01*
X90499Y92101D01*
X91832D01*
X92498Y92767D01*
Y93434D01*
X91832Y94100D01*
X89833D01*
X43001Y19698D02*
X46999D01*
Y17699D01*
X46333Y17033D01*
X45000D01*
X44334Y17699D01*
Y19698D01*
Y18365D02*
X43001Y17033D01*
Y15700D02*
Y14367D01*
Y15033D01*
X46999D01*
X46333Y15700D01*
X46999Y9702D02*
Y12367D01*
X45000D01*
X45666Y11034D01*
Y10368D01*
X45000Y9702D01*
X43667D01*
X43001Y10368D01*
Y11701D01*
X43667Y12367D01*
X79901Y19398D02*
X83899D01*
Y17399D01*
X83233Y16733D01*
X81900D01*
X81234Y17399D01*
Y19398D01*
Y18066D02*
X79901Y16733D01*
Y15400D02*
Y14067D01*
Y14733D01*
X83899D01*
X83233Y15400D01*
X79901Y10068D02*
X83899D01*
X81900Y12067D01*
Y9402D01*
X272901Y235298D02*
X276899D01*
Y233299D01*
X276233Y232633D01*
X274900D01*
X274234Y233299D01*
Y235298D01*
Y233965D02*
X272901Y232633D01*
Y231300D02*
Y229967D01*
Y230633D01*
X276899D01*
X276233Y231300D01*
Y227967D02*
X276899Y227301D01*
Y225968D01*
X276233Y225302D01*
X275566D01*
X274900Y225968D01*
Y226635D01*
Y225968D01*
X274234Y225302D01*
X273567D01*
X272901Y225968D01*
Y227301D01*
X273567Y227967D01*
X294699Y75102D02*
X290701D01*
Y77101D01*
X291367Y77767D01*
X292700D01*
X293366Y77101D01*
Y75102D01*
Y76434D02*
X294699Y77767D01*
Y79100D02*
Y80433D01*
Y79767D01*
X290701D01*
X291367Y79100D01*
X294699Y85098D02*
Y82433D01*
X292034Y85098D01*
X291367D01*
X290701Y84432D01*
Y83099D01*
X291367Y82433D01*
X280510Y30251D02*
Y33749D01*
X282259D01*
X282842Y33166D01*
Y32000D01*
X282259Y31417D01*
X280510D01*
X281676D02*
X282842Y30251D01*
X284008D02*
X285175D01*
X284592D01*
Y33749D01*
X284008Y33166D01*
X286924Y30251D02*
X288090D01*
X287507D01*
Y33749D01*
X286924Y33166D01*
X305176Y153250D02*
Y155750D01*
X306426D01*
X306842Y155333D01*
Y154500D01*
X306426Y154084D01*
X305176D01*
X306009D02*
X306842Y153250D01*
X307675D02*
X308508D01*
X308092D01*
Y155750D01*
X307675Y155333D01*
X309758D02*
X310174Y155750D01*
X311007D01*
X311424Y155333D01*
Y153667D01*
X311007Y153250D01*
X310174D01*
X309758Y153667D01*
Y155333D01*
X323517Y134350D02*
Y136850D01*
X324767D01*
X325184Y136433D01*
Y135600D01*
X324767Y135184D01*
X323517D01*
X324350D02*
X325184Y134350D01*
X326016Y134767D02*
X326433Y134350D01*
X327266D01*
X327683Y134767D01*
Y136433D01*
X327266Y136850D01*
X326433D01*
X326016Y136433D01*
Y136016D01*
X326433Y135600D01*
X327683D01*
X304499Y39568D02*
X300501D01*
Y41567D01*
X301167Y42234D01*
X302500D01*
X303166Y41567D01*
Y39568D01*
Y40901D02*
X304499Y42234D01*
X301167Y43567D02*
X300501Y44233D01*
Y45566D01*
X301167Y46232D01*
X301834D01*
X302500Y45566D01*
X303166Y46232D01*
X303833D01*
X304499Y45566D01*
Y44233D01*
X303833Y43567D01*
X303166D01*
X302500Y44233D01*
X301834Y43567D01*
X301167D01*
X302500Y44233D02*
Y45566D01*
X352201Y116601D02*
Y119599D01*
X353700D01*
X354200Y119100D01*
Y118100D01*
X353700Y117600D01*
X352201D01*
X353201D02*
X354200Y116601D01*
X355200Y119599D02*
X357199D01*
Y119100D01*
X355200Y117100D01*
Y116601D01*
X342417Y167150D02*
Y169650D01*
X343667D01*
X344083Y169233D01*
Y168400D01*
X343667Y167983D01*
X342417D01*
X343250D02*
X344083Y167150D01*
X346583Y169650D02*
X345750Y169233D01*
X344917Y168400D01*
Y167567D01*
X345333Y167150D01*
X346166D01*
X346583Y167567D01*
Y167983D01*
X346166Y168400D01*
X344917D01*
X173001Y44699D02*
X175999D01*
Y43200D01*
X175500Y42700D01*
X174500D01*
X174000Y43200D01*
Y44699D01*
Y43699D02*
X173001Y42700D01*
X175999Y39701D02*
Y41700D01*
X174500D01*
X175000Y40701D01*
Y40201D01*
X174500Y39701D01*
X173500D01*
X173001Y40201D01*
Y41200D01*
X173500Y41700D01*
X181968Y80401D02*
Y84399D01*
X183967D01*
X184634Y83733D01*
Y82400D01*
X183967Y81734D01*
X181968D01*
X183301D02*
X184634Y80401D01*
X185967Y83733D02*
X186633Y84399D01*
X187966D01*
X188632Y83733D01*
Y83066D01*
X187966Y82400D01*
X187299D01*
X187966D01*
X188632Y81734D01*
Y81067D01*
X187966Y80401D01*
X186633D01*
X185967Y81067D01*
X140501Y34501D02*
Y37499D01*
X142000D01*
X142500Y37000D01*
Y36000D01*
X142000Y35500D01*
X140501D01*
X141500D02*
X142500Y34501D01*
X145499D02*
X143500D01*
X145499Y36500D01*
Y37000D01*
X144999Y37499D01*
X144000D01*
X143500Y37000D01*
X157734Y75601D02*
Y79599D01*
X159733D01*
X160400Y78933D01*
Y77600D01*
X159733Y76934D01*
X157734D01*
X159067D02*
X160400Y75601D01*
X161733D02*
X163066D01*
X162399D01*
Y79599D01*
X161733Y78933D01*
X139033Y79967D02*
Y82633D01*
X138367Y83299D01*
X137034D01*
X136368Y82633D01*
Y79967D01*
X137034Y79301D01*
X138367D01*
X137701Y80634D02*
X139033Y79301D01*
X138367D02*
X139033Y79967D01*
X140366Y83299D02*
X143032D01*
Y82633D01*
X140366Y79967D01*
Y79301D01*
X29834Y79967D02*
Y82633D01*
X29167Y83299D01*
X27834D01*
X27168Y82633D01*
Y79967D01*
X27834Y79301D01*
X29167D01*
X28501Y80634D02*
X29834Y79301D01*
X29167D02*
X29834Y79967D01*
X33832Y83299D02*
X32499Y82633D01*
X31166Y81300D01*
Y79967D01*
X31833Y79301D01*
X33166D01*
X33832Y79967D01*
Y80634D01*
X33166Y81300D01*
X31166D01*
X65934Y79967D02*
Y82633D01*
X65267Y83299D01*
X63934D01*
X63268Y82633D01*
Y79967D01*
X63934Y79301D01*
X65267D01*
X64601Y80634D02*
X65934Y79301D01*
X65267D02*
X65934Y79967D01*
X69932Y83299D02*
X67266D01*
Y81300D01*
X68599Y81966D01*
X69266D01*
X69932Y81300D01*
Y79967D01*
X69266Y79301D01*
X67933D01*
X67266Y79967D01*
X102833Y80067D02*
Y82733D01*
X102167Y83399D01*
X100834D01*
X100168Y82733D01*
Y80067D01*
X100834Y79401D01*
X102167D01*
X101501Y80734D02*
X102833Y79401D01*
X102167D02*
X102833Y80067D01*
X106166Y79401D02*
Y83399D01*
X104166Y81400D01*
X106832D01*
X290333Y96834D02*
X287667D01*
X287001Y96167D01*
Y94834D01*
X287667Y94168D01*
X290333D01*
X290999Y94834D01*
Y96167D01*
X289666Y95501D02*
X290999Y96834D01*
Y96167D02*
X290333Y96834D01*
X287667Y98167D02*
X287001Y98833D01*
Y100166D01*
X287667Y100832D01*
X288334D01*
X289000Y100166D01*
Y99499D01*
Y100166D01*
X289666Y100832D01*
X290333D01*
X290999Y100166D01*
Y98833D01*
X290333Y98167D01*
X294400Y150900D02*
X292400D01*
X291900Y150400D01*
Y149401D01*
X292400Y148901D01*
X294400D01*
X294900Y149401D01*
Y150400D01*
X293900Y149900D02*
X294900Y150900D01*
Y150400D02*
X294400Y150900D01*
X294900Y153899D02*
Y151900D01*
X292900Y153899D01*
X292400D01*
X291900Y153399D01*
Y152400D01*
X292400Y151900D01*
X336800Y135200D02*
Y137200D01*
X336300Y137699D01*
X335300D01*
X334801Y137200D01*
Y135200D01*
X335300Y134701D01*
X336300D01*
X335800Y135700D02*
X336800Y134701D01*
X336300D02*
X336800Y135200D01*
X337800Y134701D02*
X338799D01*
X338299D01*
Y137699D01*
X337800Y137200D01*
X126468Y186399D02*
Y182401D01*
Y183733D01*
X129133Y186399D01*
X127134Y184400D01*
X129133Y182401D01*
X132466D02*
Y186399D01*
X130466Y184400D01*
X133132D01*
X17868Y186699D02*
Y182701D01*
Y184034D01*
X20534Y186699D01*
X18534Y184700D01*
X20534Y182701D01*
X21867Y186033D02*
X22533Y186699D01*
X23866D01*
X24532Y186033D01*
Y185366D01*
X23866Y184700D01*
X23199D01*
X23866D01*
X24532Y184034D01*
Y183367D01*
X23866Y182701D01*
X22533D01*
X21867Y183367D01*
X53468Y187299D02*
Y183301D01*
Y184634D01*
X56134Y187299D01*
X54134Y185300D01*
X56134Y183301D01*
X60132D02*
X57467D01*
X60132Y185967D01*
Y186633D01*
X59466Y187299D01*
X58133D01*
X57467Y186633D01*
X90834Y186699D02*
Y182701D01*
Y184034D01*
X93500Y186699D01*
X91501Y184700D01*
X93500Y182701D01*
X94833D02*
X96166D01*
X95499D01*
Y186699D01*
X94833Y186033D01*
X174233Y230999D02*
X172901D01*
X173567D01*
Y227667D01*
X172901Y227001D01*
X172234D01*
X171568Y227667D01*
X178232Y230999D02*
X176899Y230333D01*
X175566Y229000D01*
Y227667D01*
X176233Y227001D01*
X177566D01*
X178232Y227667D01*
Y228334D01*
X177566Y229000D01*
X175566D01*
X137634Y230799D02*
X136301D01*
X136967D01*
Y227467D01*
X136301Y226801D01*
X135634D01*
X134968Y227467D01*
X141632Y230799D02*
X138967D01*
Y228800D01*
X140299Y229466D01*
X140966D01*
X141632Y228800D01*
Y227467D01*
X140966Y226801D01*
X139633D01*
X138967Y227467D01*
X29034Y230899D02*
X27701D01*
X28367D01*
Y227567D01*
X27701Y226901D01*
X27034D01*
X26368Y227567D01*
X32366Y226901D02*
Y230899D01*
X30367Y228900D01*
X33032D01*
X64934Y230899D02*
X63601D01*
X64267D01*
Y227567D01*
X63601Y226901D01*
X62934D01*
X62268Y227567D01*
X66267Y230233D02*
X66933Y230899D01*
X68266D01*
X68932Y230233D01*
Y229566D01*
X68266Y228900D01*
X67599D01*
X68266D01*
X68932Y228234D01*
Y227567D01*
X68266Y226901D01*
X66933D01*
X66267Y227567D01*
X101734Y230999D02*
X100401D01*
X101067D01*
Y227667D01*
X100401Y227001D01*
X99734D01*
X99068Y227667D01*
X105732Y227001D02*
X103067D01*
X105732Y229666D01*
Y230333D01*
X105066Y230999D01*
X103733D01*
X103067Y230333D01*
X129999Y19098D02*
X126001D01*
Y17099D01*
X126667Y16433D01*
X129333D01*
X129999Y17099D01*
Y19098D01*
X126001Y15100D02*
Y13767D01*
Y14433D01*
X129999D01*
X129333Y15100D01*
X126001Y9102D02*
Y11767D01*
X128666Y9102D01*
X129333D01*
X129999Y9768D01*
Y11101D01*
X129333Y11767D01*
X27499Y36632D02*
X23501D01*
Y34633D01*
X24167Y33966D01*
X26833D01*
X27499Y34633D01*
Y36632D01*
X23501Y32633D02*
Y31300D01*
Y31967D01*
X27499D01*
X26833Y32633D01*
X23501Y29301D02*
Y27968D01*
Y28635D01*
X27499D01*
X26833Y29301D01*
X111101Y103902D02*
X115099D01*
Y105901D01*
X114433Y106567D01*
X111767D01*
X111101Y105901D01*
Y103902D01*
X115099Y107900D02*
Y109233D01*
Y108567D01*
X111101D01*
X111767Y107900D01*
Y111233D02*
X111101Y111899D01*
Y113232D01*
X111767Y113898D01*
X114433D01*
X115099Y113232D01*
Y111899D01*
X114433Y111233D01*
X111767D01*
X3101Y105668D02*
X7099D01*
Y107667D01*
X6433Y108334D01*
X3767D01*
X3101Y107667D01*
Y105668D01*
X6433Y109667D02*
X7099Y110333D01*
Y111666D01*
X6433Y112332D01*
X3767D01*
X3101Y111666D01*
Y110333D01*
X3767Y109667D01*
X4434D01*
X5100Y110333D01*
Y112332D01*
X56899Y19632D02*
X52901D01*
Y17633D01*
X53567Y16966D01*
X56233D01*
X56899Y17633D01*
Y19632D01*
X56233Y15633D02*
X56899Y14967D01*
Y13634D01*
X56233Y12968D01*
X55566D01*
X54900Y13634D01*
X54234Y12968D01*
X53567D01*
X52901Y13634D01*
Y14967D01*
X53567Y15633D01*
X54234D01*
X54900Y14967D01*
X55566Y15633D01*
X56233D01*
X54900Y14967D02*
Y13634D01*
X93799Y19232D02*
X89801D01*
Y17233D01*
X90467Y16567D01*
X93133D01*
X93799Y17233D01*
Y19232D01*
Y15234D02*
Y12568D01*
X93133D01*
X90467Y15234D01*
X89801D01*
X75301Y105568D02*
X79299D01*
Y107567D01*
X78633Y108233D01*
X75967D01*
X75301Y107567D01*
Y105568D01*
Y112232D02*
Y109566D01*
X77300D01*
X76634Y110899D01*
Y111566D01*
X77300Y112232D01*
X78633D01*
X79299Y111566D01*
Y110233D01*
X78633Y109566D01*
X284897Y235335D02*
X280898D01*
Y233336D01*
X281564Y232669D01*
X284230D01*
X284897Y233336D01*
Y235335D01*
X280898Y229337D02*
X284897D01*
X282897Y231336D01*
Y228671D01*
X287401Y115668D02*
X291399D01*
Y117667D01*
X290733Y118333D01*
X288067D01*
X287401Y117667D01*
Y115668D01*
X288067Y119667D02*
X287401Y120333D01*
Y121666D01*
X288067Y122332D01*
X288734D01*
X289400Y121666D01*
Y120999D01*
Y121666D01*
X290066Y122332D01*
X290733D01*
X291399Y121666D01*
Y120333D01*
X290733Y119667D01*
X381701Y150000D02*
X381201Y150499D01*
X380201D01*
X379701Y150000D01*
Y148000D01*
X380201Y147501D01*
X381201D01*
X381701Y148000D01*
X384700Y147501D02*
X382700D01*
X384700Y149500D01*
Y150000D01*
X384200Y150499D01*
X383200D01*
X382700Y150000D01*
X385699D02*
X386199Y150499D01*
X387199D01*
X387699Y150000D01*
Y149500D01*
X387199Y149000D01*
X387699Y148500D01*
Y148000D01*
X387199Y147501D01*
X386199D01*
X385699Y148000D01*
Y148500D01*
X386199Y149000D01*
X385699Y149500D01*
Y150000D01*
X386199Y149000D02*
X387199D01*
X389300Y173299D02*
X389799Y173799D01*
Y174799D01*
X389300Y175299D01*
X387300D01*
X386801Y174799D01*
Y173799D01*
X387300Y173299D01*
X386801Y170300D02*
Y172300D01*
X388800Y170300D01*
X389300D01*
X389799Y170800D01*
Y171800D01*
X389300Y172300D01*
X389799Y169301D02*
Y167301D01*
X389300D01*
X387300Y169301D01*
X386801D01*
X345067Y174634D02*
X344650Y174217D01*
Y173384D01*
X345067Y172968D01*
X346733D01*
X347150Y173384D01*
Y174217D01*
X346733Y174634D01*
X347150Y177133D02*
Y175467D01*
X345483Y177133D01*
X345067D01*
X344650Y176716D01*
Y175883D01*
X345067Y175467D01*
X344650Y179632D02*
X345067Y178799D01*
X345900Y177966D01*
X346733D01*
X347150Y178383D01*
Y179216D01*
X346733Y179632D01*
X346317D01*
X345900Y179216D01*
Y177966D01*
X366333Y175966D02*
X366750Y176383D01*
Y177216D01*
X366333Y177632D01*
X364667D01*
X364250Y177216D01*
Y176383D01*
X364667Y175966D01*
X364250Y173467D02*
Y175133D01*
X365916Y173467D01*
X366333D01*
X366750Y173883D01*
Y174716D01*
X366333Y175133D01*
X366750Y170968D02*
Y172634D01*
X365500D01*
X365916Y171801D01*
Y171384D01*
X365500Y170968D01*
X364667D01*
X364250Y171384D01*
Y172217D01*
X364667Y172634D01*
X261834Y192933D02*
X261168Y193599D01*
X259835D01*
X259168Y192933D01*
Y190267D01*
X259835Y189601D01*
X261168D01*
X261834Y190267D01*
X265833Y189601D02*
X263167D01*
X265833Y192266D01*
Y192933D01*
X265166Y193599D01*
X263834D01*
X263167Y192933D01*
X269165Y189601D02*
Y193599D01*
X267166Y191600D01*
X269832D01*
X345967Y16466D02*
X345384Y17049D01*
X344218D01*
X343635Y16466D01*
Y14134D01*
X344218Y13551D01*
X345384D01*
X345967Y14134D01*
X349466Y13551D02*
X347134D01*
X349466Y15883D01*
Y16466D01*
X348883Y17049D01*
X347717D01*
X347134Y16466D01*
X350633D02*
X351216Y17049D01*
X352382D01*
X352965Y16466D01*
Y15883D01*
X352382Y15300D01*
X351799D01*
X352382D01*
X352965Y14717D01*
Y14134D01*
X352382Y13551D01*
X351216D01*
X350633Y14134D01*
X364800Y210399D02*
X365300Y210899D01*
Y211899D01*
X364800Y212399D01*
X362800D01*
X362300Y211899D01*
Y210899D01*
X362800Y210399D01*
X362300Y207400D02*
Y209400D01*
X364300Y207400D01*
X364800D01*
X365300Y207900D01*
Y208900D01*
X364800Y209400D01*
X362300Y204401D02*
Y206401D01*
X364300Y204401D01*
X364800D01*
X365300Y204901D01*
Y205901D01*
X364800Y206401D01*
X289199Y194567D02*
X289866Y193901D01*
X291199D01*
X291865Y194567D01*
Y197233D01*
X291199Y197899D01*
X289866D01*
X289199Y197233D01*
X285201Y197899D02*
X287866D01*
X285201Y195234D01*
Y194567D01*
X285867Y193901D01*
X287200D01*
X287866Y194567D01*
X283868Y197899D02*
X282535D01*
X283201D01*
Y193901D01*
X283868Y194567D01*
X336901Y178800D02*
X336401Y179299D01*
X335401D01*
X334901Y178800D01*
Y176800D01*
X335401Y176301D01*
X336401D01*
X336901Y176800D01*
X339900Y176301D02*
X337900D01*
X339900Y178300D01*
Y178800D01*
X339400Y179299D01*
X338400D01*
X337900Y178800D01*
X340899D02*
X341399Y179299D01*
X342399D01*
X342899Y178800D01*
Y176800D01*
X342399Y176301D01*
X341399D01*
X340899Y176800D01*
Y178800D01*
X379301Y114650D02*
X378801Y115149D01*
X377801D01*
X377301Y114650D01*
Y112650D01*
X377801Y112151D01*
X378801D01*
X379301Y112650D01*
X380300Y112151D02*
X381300D01*
X380800D01*
Y115149D01*
X380300Y114650D01*
X382799Y112650D02*
X383299Y112151D01*
X384299D01*
X384799Y112650D01*
Y114650D01*
X384299Y115149D01*
X383299D01*
X382799Y114650D01*
Y114150D01*
X383299Y113650D01*
X384799D01*
X381851Y135900D02*
X381351Y136399D01*
X380351D01*
X379851Y135900D01*
Y133900D01*
X380351Y133400D01*
X381351D01*
X381851Y133900D01*
X382850Y133400D02*
X383850D01*
X383350D01*
Y136399D01*
X382850Y135900D01*
X385349D02*
X385849Y136399D01*
X386849D01*
X387349Y135900D01*
Y135400D01*
X386849Y134900D01*
X387349Y134400D01*
Y133900D01*
X386849Y133400D01*
X385849D01*
X385349Y133900D01*
Y134400D01*
X385849Y134900D01*
X385349Y135400D01*
Y135900D01*
X385849Y134900D02*
X386849D01*
X368629Y119096D02*
X368129Y119596D01*
X367129D01*
X366630Y119096D01*
Y117096D01*
X367129Y116596D01*
X368129D01*
X368629Y117096D01*
X369629Y116596D02*
X370628D01*
X370129D01*
Y119596D01*
X369629Y119096D01*
X372128Y119596D02*
X374127D01*
Y119096D01*
X372128Y117096D01*
Y116596D01*
X360942Y169233D02*
X360526Y169650D01*
X359693D01*
X359276Y169233D01*
Y167567D01*
X359693Y167150D01*
X360526D01*
X360942Y167567D01*
X361775Y167150D02*
X362608D01*
X362192D01*
Y169650D01*
X361775Y169233D01*
X365524Y169650D02*
X364691Y169233D01*
X363858Y168400D01*
Y167567D01*
X364274Y167150D01*
X365107D01*
X365524Y167567D01*
Y167983D01*
X365107Y168400D01*
X363858D01*
X213467Y95033D02*
X212801Y95699D01*
X211468D01*
X210802Y95033D01*
Y92367D01*
X211468Y91701D01*
X212801D01*
X213467Y92367D01*
X214800Y91701D02*
X216133D01*
X215467D01*
Y95699D01*
X214800Y95033D01*
X220798Y95699D02*
X218133D01*
Y93700D01*
X219465Y94366D01*
X220132D01*
X220798Y93700D01*
Y92367D01*
X220132Y91701D01*
X218799D01*
X218133Y92367D01*
X178567Y34133D02*
X177901Y34799D01*
X176568D01*
X175902Y34133D01*
Y31467D01*
X176568Y30801D01*
X177901D01*
X178567Y31467D01*
X179900Y30801D02*
X181233D01*
X180567D01*
Y34799D01*
X179900Y34133D01*
X183233D02*
X183899Y34799D01*
X185232D01*
X185898Y34133D01*
Y33466D01*
X185232Y32800D01*
X184565D01*
X185232D01*
X185898Y32134D01*
Y31467D01*
X185232Y30801D01*
X183899D01*
X183233Y31467D01*
X204351Y12300D02*
X203851Y12799D01*
X202851D01*
X202351Y12300D01*
Y10300D01*
X202851Y9800D01*
X203851D01*
X204351Y10300D01*
X205350Y9800D02*
X206350D01*
X205850D01*
Y12799D01*
X205350Y12300D01*
X209849Y9800D02*
X207849D01*
X209849Y11800D01*
Y12300D01*
X209349Y12799D01*
X208349D01*
X207849Y12300D01*
X197434Y67933D02*
X196767Y68599D01*
X195434D01*
X194768Y67933D01*
Y65267D01*
X195434Y64601D01*
X196767D01*
X197434Y65267D01*
X198767Y64601D02*
X200100D01*
X199433D01*
Y68599D01*
X198767Y67933D01*
X202099Y64601D02*
X203432D01*
X202765D01*
Y68599D01*
X202099Y67933D01*
X200951Y45900D02*
X200451Y46400D01*
X199451D01*
X198951Y45900D01*
Y43900D01*
X199451Y43400D01*
X200451D01*
X200951Y43900D01*
X201950Y43400D02*
X202950D01*
X202450D01*
Y46400D01*
X201950Y45900D01*
X204449D02*
X204949Y46400D01*
X205949D01*
X206449Y45900D01*
Y43900D01*
X205949Y43400D01*
X204949D01*
X204449Y43900D01*
Y45900D01*
X236433Y39866D02*
X237099Y40533D01*
Y41866D01*
X236433Y42532D01*
X233767D01*
X233101Y41866D01*
Y40533D01*
X233767Y39866D01*
Y38533D02*
X233101Y37867D01*
Y36534D01*
X233767Y35868D01*
X236433D01*
X237099Y36534D01*
Y37867D01*
X236433Y38533D01*
X235766D01*
X235100Y37867D01*
Y35868D01*
X251033Y52066D02*
X251699Y52733D01*
Y54066D01*
X251033Y54732D01*
X248367D01*
X247701Y54066D01*
Y52733D01*
X248367Y52066D01*
X251033Y50734D02*
X251699Y50067D01*
Y48734D01*
X251033Y48068D01*
X250366D01*
X249700Y48734D01*
X249034Y48068D01*
X248367D01*
X247701Y48734D01*
Y50067D01*
X248367Y50734D01*
X249034D01*
X249700Y50067D01*
X250366Y50734D01*
X251033D01*
X249700Y50067D02*
Y48734D01*
X220800Y54700D02*
X221300Y55200D01*
Y56199D01*
X220800Y56699D01*
X218800D01*
X218301Y56199D01*
Y55200D01*
X218800Y54700D01*
X221300Y53700D02*
Y51701D01*
X220800D01*
X218800Y53700D01*
X218301D01*
X213200Y54700D02*
X213700Y55200D01*
Y56199D01*
X213200Y56699D01*
X211200D01*
X210700Y56199D01*
Y55200D01*
X211200Y54700D01*
X213700Y51701D02*
X213200Y52701D01*
X212200Y53700D01*
X211200D01*
X210700Y53200D01*
Y52201D01*
X211200Y51701D01*
X211700D01*
X212200Y52201D01*
Y53700D01*
X260834Y104433D02*
X260167Y105099D01*
X258834D01*
X258168Y104433D01*
Y101767D01*
X258834Y101101D01*
X260167D01*
X260834Y101767D01*
X264832Y105099D02*
X262167D01*
Y103100D01*
X263499Y103767D01*
X264166D01*
X264832Y103100D01*
Y101767D01*
X264166Y101101D01*
X262833D01*
X262167Y101767D01*
X269534Y104433D02*
X268867Y105099D01*
X267534D01*
X266868Y104433D01*
Y101767D01*
X267534Y101101D01*
X268867D01*
X269534Y101767D01*
X272866Y101101D02*
Y105099D01*
X270866Y103100D01*
X273532D01*
X159067Y144334D02*
X158401Y143667D01*
Y142334D01*
X159067Y141668D01*
X161733D01*
X162399Y142334D01*
Y143667D01*
X161733Y144334D01*
X159067Y145667D02*
X158401Y146333D01*
Y147666D01*
X159067Y148332D01*
X159733D01*
X160400Y147666D01*
Y146999D01*
Y147666D01*
X161066Y148332D01*
X161733D01*
X162399Y147666D01*
Y146333D01*
X161733Y145667D01*
X158800Y36900D02*
X158300Y37400D01*
X157301D01*
X156801Y36900D01*
Y34900D01*
X157301Y34400D01*
X158300D01*
X158800Y34900D01*
X161799Y34400D02*
X159800D01*
X161799Y36400D01*
Y36900D01*
X161299Y37400D01*
X160300D01*
X159800Y36900D01*
X176867Y74200D02*
X176201Y73534D01*
Y72201D01*
X176867Y71534D01*
X179533D01*
X180199Y72201D01*
Y73534D01*
X179533Y74200D01*
X180199Y75533D02*
Y76866D01*
Y76199D01*
X176201D01*
X176867Y75533D01*
X258203Y157700D02*
Y154701D01*
X259702D01*
X260202Y155200D01*
Y155700D01*
X259702Y156200D01*
X258203D01*
X259702D01*
X260202Y156700D01*
Y157200D01*
X259702Y157700D01*
X258203D01*
X261202D02*
Y155200D01*
X261702Y154701D01*
X262701D01*
X263201Y155200D01*
Y157700D01*
X264201D02*
X266200D01*
Y157200D01*
X264201Y155200D01*
Y154701D01*
X266200D01*
X267200Y157700D02*
X269199D01*
Y157200D01*
X267200Y155200D01*
Y154701D01*
X269199D01*
X272198Y157700D02*
X270199D01*
Y154701D01*
X272198D01*
X270199Y156200D02*
X271199D01*
X273198Y154701D02*
Y157700D01*
X274697D01*
X275197Y157200D01*
Y156200D01*
X274697Y155700D01*
X273198D01*
X274198D02*
X275197Y154701D01*
D74*
X83201Y52807D02*
G03*
X83201Y52807I-1419J0D01*
G01*
X388454Y112206D02*
G03*
X388454Y112206I-394J0D01*
G01*
X202652Y25953D02*
G03*
X202652Y25953I-394J0D01*
G01*
X46101Y53075D02*
G03*
X46101Y53075I-1419J0D01*
G01*
X119301Y52707D02*
G03*
X119301Y52707I-1419J0D01*
G01*
X9901Y53007D02*
G03*
X9901Y53007I-1419J0D01*
G01*
X77845Y48280D02*
Y70720D01*
X95955D01*
Y48280D02*
Y70720D01*
X77845Y48280D02*
X95955D01*
X56157Y108800D02*
X56945D01*
X59701D02*
X60094D01*
X56945Y106832D02*
Y110375D01*
Y106832D02*
X59701Y108800D01*
X56945Y110375D02*
X59701Y108800D01*
Y106832D02*
Y110768D01*
X72890Y102300D02*
Y107800D01*
X43626Y102300D02*
X72890D01*
X72126Y107800D02*
X72890D01*
X72126Y102300D02*
Y107800D01*
Y109800D02*
Y115300D01*
Y109800D02*
X72890D01*
X43626Y102300D02*
Y104174D01*
X72890Y109800D02*
Y115300D01*
X43626Y113426D02*
Y115300D01*
X72890D01*
X293615Y241862D02*
X332985D01*
Y197138D02*
Y241862D01*
X293615Y197138D02*
X332985D01*
X293615D02*
Y241862D01*
X246405Y61195D02*
Y85605D01*
X221995Y61195D02*
Y85605D01*
X246405D01*
X221995Y61195D02*
X246405D01*
X364811Y189912D02*
X391189D01*
X364811Y178888D02*
X391189D01*
Y189912D01*
X364811Y178888D02*
Y189912D01*
X369408Y227786D02*
Y231133D01*
X375904Y236251D02*
X381219D01*
X375904Y204755D02*
X381219D01*
X369408Y209873D02*
Y213219D01*
X40745Y48547D02*
X58855D01*
Y70988D01*
X40745D02*
X58855D01*
X40745Y48547D02*
Y70988D01*
X9310Y204552D02*
X36869D01*
X9310Y233686D02*
X36869D01*
X9310Y204552D02*
Y233686D01*
X38444Y229139D02*
Y231698D01*
X36869Y231402D02*
X38444Y231698D01*
X36869Y229434D02*
X38444Y229139D01*
X36869Y231402D02*
Y233686D01*
Y208804D02*
X38444Y209099D01*
X36869Y206835D02*
X38444Y206540D01*
Y209099D01*
X36869Y204552D02*
Y206835D01*
Y208804D02*
Y229434D01*
X7024Y199717D02*
X25028D01*
X34555Y128717D02*
Y163717D01*
Y173717D02*
Y191217D01*
X7024Y128749D02*
Y199717D01*
X16055Y119217D02*
X25055D01*
X79769Y200100D02*
X97772D01*
X107300Y129100D02*
Y164100D01*
Y174100D02*
Y191600D01*
X79769Y129131D02*
Y200100D01*
X88800Y119600D02*
X97800D01*
X159543Y165649D02*
X165055D01*
Y186515D01*
Y192420D02*
Y193208D01*
X164268D02*
X165055D01*
X152063D02*
X157968D01*
X152063Y172342D02*
Y193208D01*
Y165649D02*
X153244D01*
X152063D02*
Y166830D01*
X181469Y208504D02*
Y229134D01*
Y204252D02*
Y206535D01*
X183044Y206240D02*
Y208799D01*
X181469Y206535D02*
X183044Y206240D01*
X181469Y208504D02*
X183044Y208799D01*
X181469Y231102D02*
Y233386D01*
Y229134D02*
X183044Y228839D01*
X181469Y231102D02*
X183044Y231398D01*
Y228839D02*
Y231398D01*
X153910Y204252D02*
Y233386D01*
X181469D01*
X153910Y204252D02*
X181469D01*
X72869Y208804D02*
Y229434D01*
Y204552D02*
Y206835D01*
X74444Y206540D02*
Y209099D01*
X72869Y206835D02*
X74444Y206540D01*
X72869Y208804D02*
X74444Y209099D01*
X72869Y231402D02*
Y233686D01*
Y229434D02*
X74444Y229139D01*
X72869Y231402D02*
X74444Y231698D01*
Y229139D02*
Y231698D01*
X45310Y204552D02*
Y233686D01*
X72869D01*
X45310Y204552D02*
X72869D01*
X52000Y119300D02*
X61000D01*
X42968Y128832D02*
Y199800D01*
X70500Y173800D02*
Y191300D01*
Y128800D02*
Y163800D01*
X42968Y199800D02*
X60972D01*
X109390Y208604D02*
Y229234D01*
Y204352D02*
Y206635D01*
X110965Y206340D02*
Y208899D01*
X109390Y206635D02*
X110965Y206340D01*
X109390Y208604D02*
X110965Y208899D01*
X109390Y231202D02*
Y233486D01*
Y229234D02*
X110965Y228939D01*
X109390Y231202D02*
X110965Y231498D01*
Y228939D02*
Y231498D01*
X81831Y204352D02*
Y233486D01*
X109390D01*
X81831Y204352D02*
X109390D01*
X124800Y120100D02*
X133800D01*
X115769Y129631D02*
Y200600D01*
X143300Y174600D02*
Y192100D01*
Y129600D02*
Y164600D01*
X115769Y200600D02*
X133772D01*
X7626Y115300D02*
X36890D01*
X7626Y113426D02*
Y115300D01*
X36890Y109800D02*
Y115300D01*
X7626Y102300D02*
Y104174D01*
X36126Y109800D02*
X36890D01*
X36126D02*
Y115300D01*
Y102300D02*
Y107800D01*
X36890D01*
X7626Y102300D02*
X36890D01*
Y107800D01*
X23701Y106832D02*
Y110768D01*
X20945Y110375D02*
X23701Y108800D01*
X20945Y106832D02*
X23701Y108800D01*
X20945Y106832D02*
Y110375D01*
X23701Y108800D02*
X24094D01*
X20157D02*
X20945D01*
X116300Y115100D02*
X145564D01*
X116300Y113226D02*
Y115100D01*
X145564Y109600D02*
Y115100D01*
X116300Y102100D02*
Y103974D01*
X144800Y109600D02*
X145564D01*
X144800D02*
Y115100D01*
Y102100D02*
Y107600D01*
X145564D01*
X116300Y102100D02*
X145564D01*
Y107600D01*
X132375Y106632D02*
Y110568D01*
X129619Y110175D02*
X132375Y108600D01*
X129619Y106632D02*
X132375Y108600D01*
X129619Y106632D02*
Y110175D01*
X132375Y108600D02*
X132768D01*
X128832D02*
X129619D01*
X80426Y115100D02*
X109690D01*
X80426Y113226D02*
Y115100D01*
X109690Y109600D02*
Y115100D01*
X80426Y102100D02*
Y103974D01*
X108926Y109600D02*
X109690D01*
X108926D02*
Y115100D01*
Y102100D02*
Y107600D01*
X109690D01*
X80426Y102100D02*
X109690D01*
Y107600D01*
X96501Y106632D02*
Y110568D01*
X93745Y110175D02*
X96501Y108600D01*
X93745Y106632D02*
X96501Y108600D01*
X93745Y106632D02*
Y110175D01*
X96501Y108600D02*
X96895D01*
X92958D02*
X93745D01*
X113945Y48180D02*
X132055D01*
Y70621D01*
X113945D02*
X132055D01*
X113945Y48180D02*
Y70621D01*
X4545Y48480D02*
X22655D01*
Y70920D01*
X4545D02*
X22655D01*
X4545Y48480D02*
Y70920D01*
X145280Y208604D02*
Y229234D01*
Y204352D02*
Y206635D01*
X146854Y206340D02*
Y208899D01*
X145280Y206635D02*
X146854Y206340D01*
X145280Y208604D02*
X146854Y208899D01*
X145280Y231202D02*
Y233486D01*
Y229234D02*
X146854Y228939D01*
X145280Y231202D02*
X146854Y231498D01*
Y228939D02*
Y231498D01*
X117720Y204352D02*
Y233486D01*
X145280D01*
X117720Y204352D02*
X145280D01*
X299300Y117006D02*
Y117793D01*
Y120549D02*
Y120942D01*
X297725Y117793D02*
X301269D01*
X299300Y120549D02*
X301269Y117793D01*
X297725D02*
X299300Y120549D01*
X297332D02*
X301269D01*
X300300Y133738D02*
X305800D01*
Y104474D02*
Y133738D01*
X300300Y132974D02*
Y133738D01*
Y132974D02*
X305800D01*
X292800D02*
X298300D01*
Y133738D01*
X303926Y104474D02*
X305800D01*
X292800Y133738D02*
X298300D01*
X292800Y104474D02*
X294674D01*
X292800D02*
Y133738D01*
D75*
X285900Y67400D02*
G03*
X287100Y68600I0J1200D01*
G01*
X282700D02*
G03*
X283900Y67400I1200J0D01*
G01*
X287100Y70600D02*
G03*
X285900Y71800I-1200J0D01*
G01*
X283900D02*
G03*
X282700Y70600I0J-1200D01*
G01*
X282100Y38300D02*
G03*
X283300Y39500I0J1200D01*
G01*
X278900D02*
G03*
X280100Y38300I1200J0D01*
G01*
X283300Y41500D02*
G03*
X282100Y42700I-1200J0D01*
G01*
X280100D02*
G03*
X278900Y41500I0J-1200D01*
G01*
X278300Y45800D02*
G03*
X279500Y47000I0J1200D01*
G01*
X275100D02*
G03*
X276300Y45800I1200J0D01*
G01*
X279500Y49000D02*
G03*
X278300Y50200I-1200J0D01*
G01*
X276300D02*
G03*
X275100Y49000I0J-1200D01*
G01*
X274400Y38400D02*
G03*
X275600Y39600I0J1200D01*
G01*
X271200D02*
G03*
X272400Y38400I1200J0D01*
G01*
X275600Y41600D02*
G03*
X274400Y42800I-1200J0D01*
G01*
X272400D02*
G03*
X271200Y41600I0J-1200D01*
G01*
X264900Y42800D02*
G03*
X263700Y41600I0J-1200D01*
G01*
X268100D02*
G03*
X266900Y42800I-1200J0D01*
G01*
X263700Y39600D02*
G03*
X264900Y38400I1200J0D01*
G01*
X266900D02*
G03*
X268100Y39600I0J1200D01*
G01*
X270500Y45800D02*
G03*
X271700Y47000I0J1200D01*
G01*
X267300D02*
G03*
X268500Y45800I1200J0D01*
G01*
X271700Y49000D02*
G03*
X270500Y50200I-1200J0D01*
G01*
X268500D02*
G03*
X267300Y49000I0J-1200D01*
G01*
X254300Y97400D02*
G03*
X255500Y98600I0J1200D01*
G01*
X251100D02*
G03*
X252300Y97400I1200J0D01*
G01*
X255500Y100600D02*
G03*
X254300Y101800I-1200J0D01*
G01*
X252300D02*
G03*
X251100Y100600I0J-1200D01*
G01*
X287600Y65800D02*
G03*
X286400Y64600I0J-1200D01*
G01*
X290800D02*
G03*
X289600Y65800I-1200J0D01*
G01*
X286400Y62600D02*
G03*
X287600Y61400I1200J0D01*
G01*
X289600D02*
G03*
X290800Y62600I0J1200D01*
G01*
X280100Y77800D02*
G03*
X278900Y76600I0J-1200D01*
G01*
X283300D02*
G03*
X282100Y77800I-1200J0D01*
G01*
X278900Y74600D02*
G03*
X280100Y73400I1200J0D01*
G01*
X282100D02*
G03*
X283300Y74600I0J1200D01*
G01*
X276400Y83800D02*
G03*
X275200Y82600I0J-1200D01*
G01*
X279600D02*
G03*
X278400Y83800I-1200J0D01*
G01*
X275200Y80600D02*
G03*
X276400Y79400I1200J0D01*
G01*
X278400D02*
G03*
X279600Y80600I0J1200D01*
G01*
X284000Y50200D02*
G03*
X282800Y49000I0J-1200D01*
G01*
X287200D02*
G03*
X286000Y50200I-1200J0D01*
G01*
X282800Y47000D02*
G03*
X284000Y45800I1200J0D01*
G01*
X286000D02*
G03*
X287200Y47000I0J1200D01*
G01*
X287900Y42800D02*
G03*
X286700Y41600I0J-1200D01*
G01*
X291100D02*
G03*
X289900Y42800I-1200J0D01*
G01*
X286700Y39600D02*
G03*
X287900Y38400I1200J0D01*
G01*
X289900D02*
G03*
X291100Y39600I0J1200D01*
G01*
X291800Y50300D02*
G03*
X290600Y49100I0J-1200D01*
G01*
X295000D02*
G03*
X293800Y50300I-1200J0D01*
G01*
X290600Y47100D02*
G03*
X291800Y45900I1200J0D01*
G01*
X293800D02*
G03*
X295000Y47100I0J1200D01*
G01*
X220500Y31200D02*
G03*
X219300Y30000I0J-1200D01*
G01*
X223700D02*
G03*
X222500Y31200I-1200J0D01*
G01*
X219300Y28000D02*
G03*
X220500Y26800I1200J0D01*
G01*
X222500D02*
G03*
X223700Y28000I0J1200D01*
G01*
X214000Y31300D02*
G03*
X212800Y30100I0J-1200D01*
G01*
X217200D02*
G03*
X216000Y31300I-1200J0D01*
G01*
X212800Y28100D02*
G03*
X214000Y26900I1200J0D01*
G01*
X216000D02*
G03*
X217200Y28100I0J1200D01*
G01*
X184500Y59000D02*
G03*
X183300Y57800I0J-1200D01*
G01*
X187700D02*
G03*
X186500Y59000I-1200J0D01*
G01*
X183300Y55800D02*
G03*
X184500Y54600I1200J0D01*
G01*
X186500D02*
G03*
X187700Y55800I0J1200D01*
G01*
X283900Y67400D02*
X285900D01*
X283900Y71800D02*
X285900D01*
X282700Y68600D02*
Y70600D01*
X287100Y68600D02*
Y70600D01*
X280100Y38300D02*
X282100D01*
X280100Y42700D02*
X282100D01*
X278900Y39500D02*
Y41500D01*
X283300Y39500D02*
Y41500D01*
X276300Y45800D02*
X278300D01*
X276300Y50200D02*
X278300D01*
X275100Y47000D02*
Y49000D01*
X279500Y47000D02*
Y49000D01*
X269700Y29600D02*
X273100D01*
X269700Y34600D02*
X273100D01*
X272400Y38400D02*
X274400D01*
X272400Y42800D02*
X274400D01*
X271200Y39600D02*
Y41600D01*
X275600Y39600D02*
Y41600D01*
X268100Y39600D02*
Y41600D01*
X263700Y39600D02*
Y41600D01*
X264900Y42800D02*
X266900D01*
X264900Y38400D02*
X266900D01*
X268500Y45800D02*
X270500D01*
X268500Y50200D02*
X270500D01*
X267300Y47000D02*
Y49000D01*
X271700Y47000D02*
Y49000D01*
X252300Y97400D02*
X254300D01*
X252300Y101800D02*
X254300D01*
X251100Y98600D02*
Y100600D01*
X255500Y98600D02*
Y100600D01*
X356800Y176900D02*
Y180300D01*
X361800Y176900D02*
Y180300D01*
X349100Y176900D02*
Y180300D01*
X354100Y176900D02*
Y180300D01*
X348550Y205950D02*
X351950D01*
X348550Y210950D02*
X351950D01*
X277500Y214500D02*
Y217900D01*
X272500Y214500D02*
Y217900D01*
X263000Y200500D02*
X266400D01*
X263000Y195500D02*
X266400D01*
X162300Y44800D02*
X165700D01*
X162300Y39800D02*
X165700D01*
X381800Y157500D02*
X385200D01*
X381800Y152500D02*
X385200D01*
X348100Y165400D02*
X351500D01*
X348100Y160400D02*
X351500D01*
X365200Y165400D02*
X368600D01*
X365200Y160400D02*
X368600D01*
X290800Y62600D02*
Y64600D01*
X286400Y62600D02*
Y64600D01*
X287600Y65800D02*
X289600D01*
X287600Y61400D02*
X289600D01*
X283300Y74600D02*
Y76600D01*
X278900Y74600D02*
Y76600D01*
X280100Y77800D02*
X282100D01*
X280100Y73400D02*
X282100D01*
X279600Y80600D02*
Y82600D01*
X275200Y80600D02*
Y82600D01*
X276400Y83800D02*
X278400D01*
X276400Y79400D02*
X278400D01*
X162400Y32300D02*
X165800D01*
X162400Y27300D02*
X165800D01*
X146100Y32400D02*
X149500D01*
X146100Y27400D02*
X149500D01*
X183400Y19900D02*
Y23300D01*
X178400Y19900D02*
Y23300D01*
X168300Y72300D02*
Y75700D01*
X173300Y72300D02*
Y75700D01*
X169600Y142300D02*
X173000D01*
X169600Y147300D02*
X173000D01*
X154100Y67900D02*
X157500D01*
X154100Y72900D02*
X157500D01*
X189050Y72850D02*
X192450D01*
X189050Y77850D02*
X192450D01*
X191400Y87800D02*
Y91200D01*
X196400Y87800D02*
Y91200D01*
X348200Y121900D02*
X351600D01*
X348200Y126900D02*
X351600D01*
X365178Y121896D02*
X368579D01*
X365178Y126896D02*
X368579D01*
X315721Y138880D02*
X319121D01*
X315721Y143880D02*
X319121D01*
X315821Y151680D02*
X319221D01*
X315821Y146680D02*
X319221D01*
X287200Y47000D02*
Y49000D01*
X282800Y47000D02*
Y49000D01*
X284000Y50200D02*
X286000D01*
X284000Y45800D02*
X286000D01*
X291100Y39600D02*
Y41600D01*
X286700Y39600D02*
Y41600D01*
X287900Y42800D02*
X289900D01*
X287900Y38400D02*
X289900D01*
X295000Y47100D02*
Y49100D01*
X290600Y47100D02*
Y49100D01*
X291800Y50300D02*
X293800D01*
X291800Y45900D02*
X293800D01*
X289700Y183000D02*
Y186400D01*
X284700Y183000D02*
Y186400D01*
X340400Y165800D02*
Y169200D01*
X335400Y165800D02*
Y169200D01*
X216300Y103400D02*
X219700D01*
X216300Y98400D02*
X219700D01*
X216300Y111400D02*
X219700D01*
X216300Y106400D02*
X219700D01*
X244700Y36900D02*
Y40300D01*
X239700Y36900D02*
Y40300D01*
X252500Y36900D02*
Y40300D01*
X247500Y36900D02*
Y40300D01*
X264100Y90000D02*
Y93400D01*
X259100Y90000D02*
Y93400D01*
X272100Y90000D02*
Y93400D01*
X267100Y90000D02*
Y93400D01*
X223700Y28000D02*
Y30000D01*
X219300Y28000D02*
Y30000D01*
X220500Y31200D02*
X222500D01*
X220500Y26800D02*
X222500D01*
X217200Y28100D02*
Y30100D01*
X212800Y28100D02*
Y30100D01*
X214000Y31300D02*
X216000D01*
X214000Y26900D02*
X216000D01*
X208550Y19950D02*
Y23350D01*
X203550Y19950D02*
Y23350D01*
X214400Y40600D02*
Y44000D01*
X209400Y40600D02*
Y44000D01*
X187700Y55800D02*
Y57800D01*
X183300Y55800D02*
Y57800D01*
X184500Y59000D02*
X186500D01*
X184500Y54600D02*
X186500D01*
X197500Y48900D02*
X200900D01*
X197500Y53900D02*
X200900D01*
X197500Y57000D02*
X200900D01*
X197500Y62000D02*
X200900D01*
X222300Y40600D02*
Y44000D01*
X217300Y40600D02*
Y44000D01*
X121800Y84700D02*
X125200D01*
X121800Y89700D02*
X125200D01*
X12400Y84800D02*
X15800D01*
X12400Y89800D02*
X15800D01*
X115500Y27000D02*
Y30400D01*
X120500Y27000D02*
Y30400D01*
X6000Y27300D02*
Y30700D01*
X11000Y27300D02*
Y30700D01*
X48500Y84800D02*
X51900D01*
X48500Y89800D02*
X51900D01*
X85600Y84500D02*
X89000D01*
X85600Y89500D02*
X89000D01*
X42300Y27400D02*
Y30800D01*
X47300Y27400D02*
Y30800D01*
X79400Y27100D02*
Y30500D01*
X84400Y27100D02*
Y30500D01*
X306500Y41200D02*
Y44600D01*
X311500Y41200D02*
Y44600D01*
X381800Y126300D02*
X385200D01*
X381800Y131300D02*
X385200D01*
X346900Y19200D02*
X350300D01*
X346900Y24200D02*
X350300D01*
X381800Y160200D02*
X385200D01*
X381800Y165200D02*
X385200D01*
X297000Y78600D02*
Y82000D01*
X302000Y78600D02*
Y82000D01*
X381800Y117900D02*
X385200D01*
X381800Y122900D02*
X385200D01*
D76*
X291839Y141100D02*
G03*
X291839Y141100I-25739J0D01*
G01*
X296121Y151680D02*
X306121D01*
X296121Y147680D02*
Y151680D01*
Y138680D02*
X306121D01*
X296121D02*
Y142680D01*
X338921Y147980D02*
Y151980D01*
X328921D02*
X338921D01*
Y138980D02*
Y142980D01*
X328921Y138980D02*
X338921D01*
X73000Y87200D02*
Y97200D01*
X69000D02*
X73000D01*
X60000Y87200D02*
Y97200D01*
X64000D01*
X145700Y87000D02*
Y97000D01*
X141700D02*
X145700D01*
X132700Y87000D02*
Y97000D01*
X136700D01*
X36800Y87200D02*
Y97200D01*
X32800D02*
X36800D01*
X23800Y87200D02*
Y97200D01*
X27800D01*
X109700Y87000D02*
Y97000D01*
X105700D02*
X109700D01*
X96700Y87000D02*
Y97000D01*
X100700D01*
X292900Y102200D02*
X296900D01*
X292900Y92200D02*
Y102200D01*
X301900D02*
X305900D01*
Y92200D02*
Y102200D01*
X254645Y131037D02*
Y126538D01*
X256894D01*
X257644Y127288D01*
Y128038D01*
X256894Y128788D01*
X254645D01*
X256894D01*
X257644Y129537D01*
Y130287D01*
X256894Y131037D01*
X254645D01*
X259144D02*
Y127288D01*
X259893Y126538D01*
X261393D01*
X262143Y127288D01*
Y131037D01*
X263642D02*
X266641D01*
Y130287D01*
X263642Y127288D01*
Y126538D01*
X266641D01*
X268141Y131037D02*
X271140D01*
Y130287D01*
X268141Y127288D01*
Y126538D01*
X271140D01*
X275638Y131037D02*
X272639D01*
Y126538D01*
X275638D01*
X272639Y128788D02*
X274139D01*
X277138Y126538D02*
Y131037D01*
X279387D01*
X280137Y130287D01*
Y128788D01*
X279387Y128038D01*
X277138D01*
X278637D02*
X280137Y126538D01*
X269203Y14199D02*
X267203D01*
Y11201D01*
X269203D01*
X267203Y12700D02*
X268203D01*
X270202Y11201D02*
Y14199D01*
X272202Y11201D01*
Y14199D01*
X275201Y13700D02*
X274701Y14199D01*
X273701D01*
X273201Y13700D01*
Y11700D01*
X273701Y11201D01*
X274701D01*
X275201Y11700D01*
X277700Y14199D02*
X276700D01*
X276200Y13700D01*
Y11700D01*
X276700Y11201D01*
X277700D01*
X278200Y11700D01*
Y13700D01*
X277700Y14199D01*
X279199D02*
Y11201D01*
X280699D01*
X281199Y11700D01*
Y13700D01*
X280699Y14199D01*
X279199D01*
X284198D02*
X282198D01*
Y11201D01*
X284198D01*
X282198Y12700D02*
X283198D01*
X285197Y11201D02*
Y14199D01*
X286697D01*
X287197Y13700D01*
Y12700D01*
X286697Y12200D01*
X285197D01*
X286197D02*
X287197Y11201D01*
X315552Y13999D02*
Y11000D01*
X317052D01*
X317551Y11500D01*
Y13500D01*
X317052Y13999D01*
X315552D01*
X318551D02*
Y11000D01*
Y12500D01*
X320550D01*
Y13999D01*
Y11000D01*
X321550Y13999D02*
X323549D01*
X322550D01*
Y11000D01*
X324549D02*
X325549D01*
X325049D01*
Y13999D01*
X324549Y13500D01*
X327048Y11000D02*
X328048D01*
X327548D01*
Y13999D01*
X327048Y13500D01*
D77*
X333552Y177202D02*
G03*
X333552Y171794I0J-2704D01*
G01*
X317195Y108268D02*
X319754D01*
X317195Y98623D02*
Y108268D01*
Y37402D02*
Y47048D01*
Y37402D02*
X319754D01*
X391998Y108268D02*
X417588D01*
Y37402D02*
Y108268D01*
X391998Y37402D02*
X417588D01*
X341071Y213042D02*
X358071D01*
X341071D02*
Y225542D01*
X358071D01*
Y213042D02*
Y225542D01*
X341071Y224542D02*
Y225542D01*
X342571D01*
X342471D02*
X342671D01*
X341071Y224142D02*
Y224242D01*
X263800Y35500D02*
X279100D01*
X263800Y28800D02*
Y35500D01*
Y28800D02*
X279100D01*
Y35500D01*
X333552Y165498D02*
Y183498D01*
X292052Y165498D02*
Y183498D01*
X332402Y165498D02*
X333552Y165498D01*
X292052D02*
X293202Y165498D01*
X332402Y183498D02*
X333552Y183498D01*
X292052D02*
X293202Y183498D01*
X140500Y45900D02*
X145500D01*
X149500D02*
X155000D01*
X140500Y38900D02*
X145500D01*
X149500D02*
X155000D01*
X139500Y39900D02*
Y44900D01*
X140500Y45900D01*
X139500Y39900D02*
X140500Y38900D01*
X155000D02*
Y45900D01*
X305600Y52900D02*
Y57900D01*
Y61900D02*
Y67400D01*
X312600Y52900D02*
Y57900D01*
Y61900D02*
Y67400D01*
X306600Y51900D02*
X311600D01*
X305600Y52900D02*
X306600Y51900D01*
X311600D02*
X312600Y52900D01*
X305600Y67400D02*
X312600D01*
X362700Y170900D02*
Y186200D01*
X356000D02*
X362700D01*
X356000Y170900D02*
Y186200D01*
Y170900D02*
X362700D01*
X355000D02*
Y186200D01*
X348300D02*
X355000D01*
X348300Y170900D02*
Y186200D01*
Y170900D02*
X355000D01*
X342650Y211850D02*
X357950D01*
X342650Y205150D02*
Y211850D01*
Y205150D02*
X357950D01*
Y211850D01*
X271600Y208600D02*
Y223900D01*
Y208600D02*
X278300D01*
Y223900D01*
X271600D02*
X278300D01*
X272400Y194700D02*
Y201400D01*
X257100Y194700D02*
X272400D01*
X257100D02*
Y201400D01*
X272400D01*
X171700Y39000D02*
Y45700D01*
X156400Y39000D02*
X171700D01*
X156400D02*
Y45700D01*
X171700D01*
X391200Y151700D02*
Y158400D01*
X375900Y151700D02*
X391200D01*
X375900D02*
Y158400D01*
X391200D01*
X342100Y159500D02*
X357400D01*
Y166200D01*
X342100D02*
X357400D01*
X342100Y159500D02*
Y166200D01*
X359200Y159500D02*
X374500D01*
Y166200D01*
X359200D02*
X374500D01*
X359200Y159500D02*
Y166200D01*
X156400Y26400D02*
X171700D01*
Y33100D01*
X156400D02*
X171700D01*
X156400Y26400D02*
Y33100D01*
X140100Y26500D02*
X155400D01*
Y33200D01*
X140100D02*
X155400D01*
X140100Y26500D02*
Y33200D01*
X177600Y13900D02*
X184300D01*
X177600D02*
Y29200D01*
X184300D01*
Y13900D02*
Y29200D01*
X174200Y66300D02*
Y81600D01*
X167500D02*
X174200D01*
X167500Y66300D02*
Y81600D01*
Y66300D02*
X174200D01*
X163600Y141400D02*
Y148100D01*
X178900D01*
Y141400D02*
Y148100D01*
X163600Y141400D02*
X178900D01*
X148200Y73800D02*
X163500D01*
X148200Y67100D02*
Y73800D01*
Y67100D02*
X163500D01*
Y73800D01*
X183050Y71950D02*
Y78650D01*
X198350D01*
Y71950D02*
Y78650D01*
X183050Y71950D02*
X198350D01*
X190500Y97200D02*
X197200D01*
Y81900D02*
Y97200D01*
X190500Y81900D02*
X197200D01*
X190500D02*
Y97200D01*
X342200Y121000D02*
Y127700D01*
X357500D01*
Y121000D02*
Y127700D01*
X342200Y121000D02*
X357500D01*
X359178Y120996D02*
Y127696D01*
X374479D01*
Y120996D02*
Y127696D01*
X359178Y120996D02*
X374479D01*
X309821Y144780D02*
X325121D01*
X309821Y138080D02*
Y144780D01*
Y138080D02*
X325121D01*
Y144780D01*
X309821Y145780D02*
X325121D01*
Y152480D01*
X309821D02*
X325121D01*
X309821Y145780D02*
Y152480D01*
X283900Y177000D02*
X290600D01*
X283900D02*
Y192300D01*
X290600D01*
Y177000D02*
Y192300D01*
X334500Y159900D02*
Y175200D01*
Y159900D02*
X341200D01*
Y175200D01*
X334500D02*
X341200D01*
X225700Y97600D02*
Y104300D01*
X210400Y97600D02*
X225700D01*
X210400D02*
Y104300D01*
X225700D01*
Y105600D02*
Y112300D01*
X210400Y105600D02*
X225700D01*
X210400D02*
Y112300D01*
X225700D01*
X238900Y30900D02*
X245600D01*
X238900D02*
Y46200D01*
X245600D01*
Y30900D02*
Y46200D01*
X246700Y30900D02*
X253400D01*
X246700D02*
Y46200D01*
X253400D01*
Y30900D02*
Y46200D01*
X258300Y84000D02*
X265000D01*
X258300D02*
Y99300D01*
X265000D01*
Y84000D02*
Y99300D01*
X266300Y84000D02*
X273000D01*
X266300D02*
Y99300D01*
X273000D01*
Y84000D02*
Y99300D01*
X202650Y14050D02*
Y29350D01*
Y14050D02*
X209350D01*
Y29350D01*
X202650D02*
X209350D01*
X208600Y34600D02*
X215300D01*
X208600D02*
Y49900D01*
X215300D01*
Y34600D02*
Y49900D01*
X191500Y48000D02*
Y54700D01*
X206800D01*
Y48000D02*
Y54700D01*
X191500Y48000D02*
X206800D01*
X191500Y56100D02*
Y62800D01*
X206800D01*
Y56100D02*
Y62800D01*
X191500Y56100D02*
X206800D01*
X216500Y34600D02*
X223200D01*
X216500D02*
Y49900D01*
X223200D01*
Y34600D02*
Y49900D01*
X115800Y83800D02*
Y90500D01*
X131100D01*
Y83800D02*
Y90500D01*
X115800Y83800D02*
X131100D01*
X6400Y83900D02*
Y90600D01*
X21700D01*
Y83900D02*
Y90600D01*
X6400Y83900D02*
X21700D01*
X114600Y36400D02*
X121300D01*
Y21100D02*
Y36400D01*
X114600Y21100D02*
X121300D01*
X114600D02*
Y36400D01*
X5100Y36700D02*
X11800D01*
Y21400D02*
Y36700D01*
X5100Y21400D02*
X11800D01*
X5100D02*
Y36700D01*
X42500Y83900D02*
Y90600D01*
X57800D01*
Y83900D02*
Y90600D01*
X42500Y83900D02*
X57800D01*
X79600Y83600D02*
Y90300D01*
X94900D01*
Y83600D02*
Y90300D01*
X79600Y83600D02*
X94900D01*
X41400Y36800D02*
X48100D01*
Y21500D02*
Y36800D01*
X41400Y21500D02*
X48100D01*
X41400D02*
Y36800D01*
X78500Y36500D02*
X85200D01*
Y21200D02*
Y36500D01*
X78500Y21200D02*
X85200D01*
X78500D02*
Y36500D01*
X124400Y21900D02*
Y26900D01*
Y30900D02*
Y36400D01*
X131400Y21900D02*
Y26900D01*
Y30900D02*
Y36400D01*
X125400Y20900D02*
X130400D01*
X124400Y21900D02*
X125400Y20900D01*
X130400D02*
X131400Y21900D01*
X124400Y36400D02*
X131400D01*
X15000Y22166D02*
Y27166D01*
Y31166D02*
Y36666D01*
X22000Y22166D02*
Y27166D01*
Y31166D02*
Y36666D01*
X16000Y21166D02*
X21000D01*
X15000Y22166D02*
X16000Y21166D01*
X21000D02*
X22000Y22166D01*
X15000Y36666D02*
X22000D01*
X51200Y22400D02*
Y27400D01*
Y31400D02*
Y36900D01*
X58200Y22400D02*
Y27400D01*
Y31400D02*
Y36900D01*
X52200Y21400D02*
X57200D01*
X51200Y22400D02*
X52200Y21400D01*
X57200D02*
X58200Y22400D01*
X51200Y36900D02*
X58200D01*
X88400Y22166D02*
Y27166D01*
Y31166D02*
Y36666D01*
X95400Y22166D02*
Y27166D01*
Y31166D02*
Y36666D01*
X89400Y21166D02*
X94400D01*
X88400Y22166D02*
X89400Y21166D01*
X94400D02*
X95400Y22166D01*
X88400Y36666D02*
X95400D01*
X312400Y35200D02*
Y50500D01*
X305700D02*
X312400D01*
X305700Y35200D02*
Y50500D01*
Y35200D02*
X312400D01*
X375900Y132200D02*
X391200D01*
X375900Y125500D02*
Y132200D01*
Y125500D02*
X391200D01*
Y132200D01*
X341000Y25100D02*
X356300D01*
X341000Y18400D02*
Y25100D01*
Y18400D02*
X356300D01*
Y25100D01*
X375900Y166100D02*
X391200D01*
X375900Y159400D02*
Y166100D01*
Y159400D02*
X391200D01*
Y166100D01*
X302900Y72600D02*
Y87900D01*
X296200D02*
X302900D01*
X296200Y72600D02*
Y87900D01*
Y72600D02*
X302900D01*
X375900Y123800D02*
X391200D01*
X375900Y117100D02*
Y123800D01*
Y117100D02*
X391200D01*
Y123800D01*
X301401Y9900D02*
Y9233D01*
X301734Y8900D01*
X303067D01*
X303400Y9233D01*
Y9900D01*
X303067Y10233D01*
X301734D01*
X301401Y9900D01*
Y10899D02*
X303067D01*
X303400Y11233D01*
Y11899D01*
X303067Y12232D01*
X301401D01*
Y12899D02*
Y14232D01*
Y13565D01*
X303400D01*
X332802Y161998D02*
Y160832D01*
Y161415D01*
X336301D01*
X335718Y161998D01*
X336301Y156750D02*
X335718Y157916D01*
X334551Y159082D01*
X333385D01*
X332802Y158499D01*
Y157333D01*
X333385Y156750D01*
X333968D01*
X334551Y157333D01*
Y159082D01*
X290220Y159133D02*
X289637Y158550D01*
Y157383D01*
X290220Y156800D01*
X292553D01*
X293136Y157383D01*
Y158550D01*
X292553Y159133D01*
X291970D01*
X291387Y158550D01*
Y156800D01*
X292068Y190211D02*
X292651Y189628D01*
Y188461D01*
X292068Y187878D01*
X291484D01*
X290901Y188461D01*
X290318Y187878D01*
X289735D01*
X289152Y188461D01*
Y189628D01*
X289735Y190211D01*
X290318D01*
X290901Y189628D01*
X291484Y190211D01*
X292068D01*
X290901Y189628D02*
Y188461D01*
X332302Y190498D02*
Y189332D01*
Y189915D01*
X335801D01*
X335218Y190498D01*
X305333Y12800D02*
Y14133D01*
X304667Y13466D02*
X306000D01*
X300100Y11000D02*
X298101D01*
X300100Y12333D01*
X298101D01*
X298434Y14332D02*
X298101Y13999D01*
Y13333D01*
X298434Y12999D01*
X299767D01*
X300100Y13333D01*
Y13999D01*
X299767Y14332D01*
X296800Y12900D02*
Y14233D01*
X252700Y12600D02*
Y13933D01*
X250834Y12600D02*
Y13933D01*
X250167Y13266D02*
X251500D01*
X247334Y12033D02*
X247001Y11700D01*
Y11033D01*
X247334Y10700D01*
X247667D01*
X248000Y11033D01*
Y11700D01*
X248334Y12033D01*
X248667D01*
X249000Y11700D01*
Y11033D01*
X248667Y10700D01*
X247001Y12699D02*
X249000D01*
X248334Y13366D01*
X249000Y14032D01*
X247001D01*
X243901Y11200D02*
X245900D01*
Y12200D01*
X245567Y12533D01*
X244234D01*
X243901Y12200D01*
Y11200D01*
Y13199D02*
Y14532D01*
Y13866D01*
X245900D01*
X240934Y10133D02*
X240601Y9800D01*
Y9133D01*
X240934Y8800D01*
X242267D01*
X242600Y9133D01*
Y9800D01*
X242267Y10133D01*
X240601Y10799D02*
X242600D01*
Y12132D01*
X240601Y12799D02*
X242600D01*
X241934D01*
X240601Y14132D01*
X241600Y13132D01*
X242600Y14132D01*
X305001Y69875D02*
X304002D01*
Y68375D01*
X305001D01*
X304002Y69125D02*
X304501D01*
X306501Y69625D02*
X306251Y69875D01*
X305751D01*
X305501Y69625D01*
Y69375D01*
X305751Y69125D01*
X306251D01*
X306501Y68875D01*
Y68625D01*
X306251Y68375D01*
X305751D01*
X305501Y68625D01*
X307001Y68375D02*
Y69875D01*
X307750D01*
X308000Y69625D01*
Y69125D01*
X307750Y68875D01*
X307001D01*
X308500Y68125D02*
X309500D01*
X310000Y69875D02*
Y68375D01*
X310999D01*
X312499Y69875D02*
X311499D01*
Y68375D01*
X312499D01*
X311499Y69125D02*
X311999D01*
X312999Y69875D02*
Y68375D01*
X313749D01*
X313998Y68625D01*
Y69625D01*
X313749Y69875D01*
X312999D01*
X143601Y48125D02*
X143351Y48375D01*
X142851D01*
X142602Y48125D01*
Y47875D01*
X142851Y47625D01*
X143351D01*
X143601Y47375D01*
Y47125D01*
X143351Y46875D01*
X142851D01*
X142602Y47125D01*
X144101Y48375D02*
X145101D01*
X144601D01*
Y46875D01*
X145601D02*
Y48375D01*
X146100Y47875D01*
X146600Y48375D01*
Y46875D01*
X147100Y46625D02*
X148100D01*
X148600Y48375D02*
Y46875D01*
X149599D01*
X151099Y48375D02*
X150099D01*
Y46875D01*
X151099D01*
X150099Y47625D02*
X150599D01*
X151599Y48375D02*
Y46875D01*
X152348D01*
X152598Y47125D01*
Y48125D01*
X152348Y48375D01*
X151599D01*
X340425Y129752D02*
X341925D01*
Y130502D01*
X341675Y130752D01*
X341425D01*
X341175Y130502D01*
Y129752D01*
Y130502D01*
X340925Y130752D01*
X340675D01*
X340425Y130502D01*
Y129752D01*
Y132001D02*
Y131501D01*
X340675Y131251D01*
X341675D01*
X341925Y131501D01*
Y132001D01*
X341675Y132251D01*
X340675D01*
X340425Y132001D01*
Y133501D02*
Y133001D01*
X340675Y132751D01*
X341675D01*
X341925Y133001D01*
Y133501D01*
X341675Y133751D01*
X340675D01*
X340425Y133501D01*
Y134250D02*
Y135250D01*
Y134750D01*
X341925D01*
X342175Y135750D02*
Y136750D01*
X340425Y138249D02*
Y137249D01*
X341925D01*
Y138249D01*
X341175Y137249D02*
Y137749D01*
X340675Y139749D02*
X340425Y139499D01*
Y138999D01*
X340675Y138749D01*
X340925D01*
X341175Y138999D01*
Y139499D01*
X341425Y139749D01*
X341675D01*
X341925Y139499D01*
Y138999D01*
X341675Y138749D01*
X341925Y140249D02*
X340425D01*
Y140998D01*
X340675Y141248D01*
X341175D01*
X341425Y140998D01*
Y140249D01*
X341925Y148002D02*
X340425D01*
Y148751D01*
X340675Y149001D01*
X341175D01*
X341425Y148751D01*
Y148002D01*
Y148501D02*
X341925Y149001D01*
X340675Y150501D02*
X340425Y150251D01*
Y149751D01*
X340675Y149501D01*
X340925D01*
X341175Y149751D01*
Y150251D01*
X341425Y150501D01*
X341675D01*
X341925Y150251D01*
Y149751D01*
X341675Y149501D01*
X340425Y151001D02*
Y152000D01*
Y151500D01*
X341925D01*
X342175Y152500D02*
Y153500D01*
X340425Y154999D02*
Y154000D01*
X341925D01*
Y154999D01*
X341175Y154000D02*
Y154499D01*
X340675Y156499D02*
X340425Y156249D01*
Y155749D01*
X340675Y155499D01*
X340925D01*
X341175Y155749D01*
Y156249D01*
X341425Y156499D01*
X341675D01*
X341925Y156249D01*
Y155749D01*
X341675Y155499D01*
X341925Y156999D02*
X340425D01*
Y157748D01*
X340675Y157998D01*
X341175D01*
X341425Y157748D01*
Y156999D01*
X167802Y11475D02*
Y12975D01*
X168551D01*
X168801Y12725D01*
Y12225D01*
X168551Y11975D01*
X167802D01*
X168301D02*
X168801Y11475D01*
X170301Y12725D02*
X170051Y12975D01*
X169551D01*
X169301Y12725D01*
Y12475D01*
X169551Y12225D01*
X170051D01*
X170301Y11975D01*
Y11725D01*
X170051Y11475D01*
X169551D01*
X169301Y11725D01*
X170801Y12975D02*
X171800D01*
X171300D01*
Y11475D01*
X172300Y11225D02*
X173300D01*
X174799Y12725D02*
X174549Y12975D01*
X174050D01*
X173800Y12725D01*
Y12475D01*
X174050Y12225D01*
X174549D01*
X174799Y11975D01*
Y11725D01*
X174549Y11475D01*
X174050D01*
X173800Y11725D01*
X175299Y12975D02*
X176299D01*
X175799D01*
Y11475D01*
X176799D02*
Y12975D01*
X177299Y12475D01*
X177798Y12975D01*
Y11475D01*
X169952Y52375D02*
Y50875D01*
X170702D01*
X170951Y51125D01*
Y51375D01*
X170702Y51625D01*
X169952D01*
X170702D01*
X170951Y51875D01*
Y52125D01*
X170702Y52375D01*
X169952D01*
X172201D02*
X171701D01*
X171451Y52125D01*
Y51125D01*
X171701Y50875D01*
X172201D01*
X172451Y51125D01*
Y52125D01*
X172201Y52375D01*
X173701D02*
X173201D01*
X172951Y52125D01*
Y51125D01*
X173201Y50875D01*
X173701D01*
X173951Y51125D01*
Y52125D01*
X173701Y52375D01*
X174450D02*
X175450D01*
X174950D01*
Y50875D01*
X175950Y50625D02*
X176950D01*
X178449Y52125D02*
X178199Y52375D01*
X177699D01*
X177449Y52125D01*
Y51875D01*
X177699Y51625D01*
X178199D01*
X178449Y51375D01*
Y51125D01*
X178199Y50875D01*
X177699D01*
X177449Y51125D01*
X178949Y52375D02*
X179949D01*
X179449D01*
Y50875D01*
X180448D02*
Y52375D01*
X180948Y51875D01*
X181448Y52375D01*
Y50875D01*
X363500Y187368D02*
X362167D01*
X361500Y188034D01*
X362167Y188701D01*
X363500D01*
X362500D01*
Y187368D01*
X363500Y189367D02*
X361500D01*
X362167Y190033D01*
X361500Y190700D01*
X363500D01*
X361834Y192699D02*
X361500Y192366D01*
Y191700D01*
X361834Y191367D01*
X362167D01*
X362500Y191700D01*
Y192366D01*
X362833Y192699D01*
X363166D01*
X363500Y192366D01*
Y191700D01*
X363166Y191367D01*
X363500Y193366D02*
Y194032D01*
Y193699D01*
X361500D01*
X361834Y193366D01*
D78*
X334302Y185998D02*
G03*
X334302Y185998I-500J0D01*
G01*
X233100Y140699D02*
X238432D01*
X235766Y143365D02*
Y138033D01*
D79*
X227113Y65132D02*
G03*
X227113Y65132I-1181J0D01*
G01*
D80*
X221110Y56766D02*
G03*
X221110Y56766I-492J0D01*
G01*
X391681Y195817D02*
G03*
X391681Y195817I-492J0D01*
G01*
X302113Y142188D02*
G03*
X302113Y142188I-492J0D01*
G01*
X333913Y148472D02*
G03*
X333913Y148472I-492J0D01*
G01*
X64000Y91700D02*
G03*
X64000Y91700I-492J0D01*
G01*
X136700Y91500D02*
G03*
X136700Y91500I-492J0D01*
G01*
X27800Y91700D02*
G03*
X27800Y91700I-492J0D01*
G01*
X100700Y91500D02*
G03*
X100700Y91500I-492J0D01*
G01*
X296900Y96700D02*
G03*
X296900Y96700I-492J0D01*
G01*
D81*
X302214Y202493D02*
X302405Y202112D01*
X302786Y201731D01*
X303166Y201541D01*
X303738Y201350D01*
X304690D01*
X305261Y201541D01*
X305642Y201731D01*
X306023Y202112D01*
X306213Y202493D01*
Y203255D01*
X306023Y203636D01*
X305642Y204016D01*
X305261Y204207D01*
X304690Y204397D01*
X303738D01*
X303166Y204207D01*
X302786Y204016D01*
X302405Y203636D01*
X302214Y203255D01*
Y202493D01*
Y205330D02*
X306213D01*
X302214D02*
X306213Y207997D01*
X302214D02*
X306213D01*
D82*
X349559Y224418D02*
D03*
%TF.MD5,69563fe19a1ffedad4af9f1d2dfbeb04*%
M02*
